<svg xmlns="http://www.w3.org/2000/svg" xmlns:xlink="http://www.w3.org/1999/xlink" viewBox="0 0 2797.51 2785.05"><defs><style>.cls-1{fill:url(#linear-gradient);}.cls-2{fill:url(#linear-gradient-2);}.cls-12,.cls-3{fill:#91b3fa;}.cls-4{fill:url(#linear-gradient-3);}.cls-5{fill:#bdd0fb;}.cls-6{fill:url(#linear-gradient-4);}.cls-13,.cls-16,.cls-43,.cls-51,.cls-7{fill:#fff;}.cls-7{opacity:0.37;}.cls-8{fill:url(#linear-gradient-5);}.cls-9{fill:url(#linear-gradient-6);}.cls-10{fill:url(#linear-gradient-7);}.cls-11{fill:url(#linear-gradient-8);}.cls-12{opacity:0.67;}.cls-13{opacity:0.78;}.cls-14{fill:url(#linear-gradient-9);}.cls-15{fill:url(#linear-gradient-10);}.cls-16{opacity:0.6;}.cls-17{fill:url(#linear-gradient-11);}.cls-18{fill:url(#linear-gradient-12);}.cls-19{fill:url(#linear-gradient-13);}.cls-20{fill:url(#linear-gradient-14);}.cls-21{fill:url(#linear-gradient-15);}.cls-22{fill:url(#linear-gradient-16);}.cls-23{fill:url(#linear-gradient-17);}.cls-24{fill:url(#linear-gradient-18);}.cls-25{fill:url(#linear-gradient-19);}.cls-26{fill:url(#linear-gradient-20);}.cls-27{fill:url(#linear-gradient-21);}.cls-28{fill:url(#linear-gradient-22);}.cls-29{fill:url(#linear-gradient-23);}.cls-30{fill:url(#linear-gradient-24);}.cls-31{fill:#7d97f4;}.cls-32{fill:url(#linear-gradient-25);}.cls-33{fill:url(#linear-gradient-26);}.cls-34{fill:url(#linear-gradient-27);}.cls-35{fill:url(#linear-gradient-28);}.cls-36{fill:url(#linear-gradient-29);}.cls-37{fill:url(#linear-gradient-30);}.cls-38{fill:url(#linear-gradient-31);}.cls-39{fill:url(#linear-gradient-32);}.cls-40{fill:url(#linear-gradient-33);}.cls-41{fill:url(#linear-gradient-34);}.cls-42{fill:url(#linear-gradient-35);}.cls-44{fill:url(#linear-gradient-36);}.cls-45{fill:url(#linear-gradient-37);}.cls-46{fill:url(#linear-gradient-38);}.cls-47{fill:url(#linear-gradient-39);}.cls-48{fill:url(#linear-gradient-40);}.cls-49{fill:url(#linear-gradient-41);}.cls-50{fill:url(#linear-gradient-42);}.cls-51{opacity:0.7;}.cls-52{fill:url(#linear-gradient-43);}.cls-53{fill:url(#linear-gradient-44);}.cls-54{fill:url(#linear-gradient-45);}.cls-55{fill:url(#linear-gradient-46);}.cls-56{fill:url(#linear-gradient-47);}.cls-57{fill:url(#linear-gradient-48);}.cls-58{fill:url(#linear-gradient-49);}.cls-59{fill:url(#linear-gradient-50);}.cls-60{fill:url(#linear-gradient-51);}.cls-61{fill:url(#linear-gradient-52);}.cls-62{fill:url(#linear-gradient-53);}.cls-63{fill:url(#linear-gradient-54);}.cls-64{fill:url(#linear-gradient-55);}.cls-65{fill:url(#linear-gradient-56);}.cls-66{fill:url(#linear-gradient-57);}.cls-67{fill:url(#linear-gradient-58);}.cls-68{fill:url(#linear-gradient-59);}.cls-69{fill:url(#linear-gradient-60);}.cls-70{fill:url(#linear-gradient-61);}.cls-71{fill:url(#linear-gradient-62);}.cls-72{fill:url(#linear-gradient-63);}.cls-73{fill:url(#linear-gradient-64);}.cls-74{fill:url(#linear-gradient-65);}.cls-75{fill:url(#linear-gradient-66);}.cls-76{fill:url(#linear-gradient-67);}.cls-77{fill:url(#linear-gradient-68);}.cls-78{fill:url(#linear-gradient-69);}.cls-79{fill:url(#linear-gradient-70);}.cls-80{fill:url(#linear-gradient-71);}.cls-81{fill:url(#linear-gradient-72);}.cls-82{fill:url(#linear-gradient-73);}.cls-83{fill:url(#linear-gradient-74);}.cls-84{fill:url(#linear-gradient-75);}.cls-85{fill:url(#linear-gradient-76);}</style><linearGradient id="linear-gradient" x1="3419.3" y1="3609.68" x2="1372.7" y2="1400.64" gradientUnits="userSpaceOnUse"><stop offset="0" stop-color="#dae3fe"/><stop offset="1" stop-color="#e9effd"/></linearGradient><linearGradient id="linear-gradient-2" x1="1619.31" y1="2665.96" x2="2232.73" y2="825.71" gradientUnits="userSpaceOnUse"><stop offset="0" stop-color="#09005d"/><stop offset="1" stop-color="#1a0f91"/></linearGradient><linearGradient id="linear-gradient-3" x1="1499.92" y1="1292.58" x2="1372.66" y2="2687.36" xlink:href="#linear-gradient-2"/><linearGradient id="linear-gradient-4" x1="2215.93" y1="1300.11" x2="2357.18" y2="1300.11" xlink:href="#linear-gradient"/><linearGradient id="linear-gradient-5" x1="1315.63" y1="-123.9" x2="1313.44" y2="210.3" gradientTransform="matrix(-0.9, -0.43, -0.43, 0.9, 3932.53, 1216.74)" xlink:href="#linear-gradient-2"/><linearGradient id="linear-gradient-6" x1="1840.52" y1="723.46" x2="1645.57" y2="1134.56" gradientTransform="matrix(-0.48, -0.88, -0.88, 0.48, 4225.7, 2016.31)" xlink:href="#linear-gradient-2"/><linearGradient id="linear-gradient-7" x1="1376.71" y1="-123.49" x2="1374.51" y2="210.7" gradientTransform="matrix(-0.9, -0.43, -0.43, 0.9, 3932.53, 1216.74)" gradientUnits="userSpaceOnUse"><stop offset="0" stop-color="#4f52ff"/><stop offset="1" stop-color="#4042e2"/></linearGradient><linearGradient id="linear-gradient-8" x1="1257.03" y1="-124.28" x2="1254.84" y2="209.91" xlink:href="#linear-gradient-7"/><linearGradient id="linear-gradient-9" x1="1309.33" y1="98.42" x2="1561.01" y2="98.42" xlink:href="#linear-gradient-7"/><linearGradient id="linear-gradient-10" x1="1064.67" y1="98.41" x2="1316.35" y2="98.41" xlink:href="#linear-gradient-7"/><linearGradient id="linear-gradient-11" x1="2417.68" y1="1988.23" x2="2699.99" y2="1988.23" gradientTransform="matrix(1, 0, 0, 1, 0, 0)" xlink:href="#linear-gradient-7"/><linearGradient id="linear-gradient-12" x1="4062.66" y1="2149.03" x2="4185.64" y2="2474.93" gradientTransform="translate(-1327.05)" gradientUnits="userSpaceOnUse"><stop offset="0" stop-color="#febbba"/><stop offset="1" stop-color="#ff928e"/></linearGradient><linearGradient id="linear-gradient-13" x1="3555.63" y1="270.89" x2="3319.96" y2="863.43" gradientUnits="userSpaceOnUse"><stop offset="0" stop-color="#ff928e"/><stop offset="1" stop-color="#fe7062"/></linearGradient><linearGradient id="linear-gradient-14" x1="4706.99" y1="2969.03" x2="4851.78" y2="2969.03" gradientTransform="matrix(-1, 0, 0, 1, 7706.39, 0)" xlink:href="#linear-gradient-2"/><linearGradient id="linear-gradient-15" x1="-5183.17" y1="2675.56" x2="-5183.17" y2="2975.27" gradientTransform="matrix(-1, 0, 0, 1, -2256.17, 0)" xlink:href="#linear-gradient-7"/><linearGradient id="linear-gradient-16" x1="4452.63" y1="2969.4" x2="4520.43" y2="2969.4" gradientTransform="matrix(-1, 0, 0, 1, 7706.39, 0)" xlink:href="#linear-gradient-2"/><linearGradient id="linear-gradient-17" x1="-5500.93" y1="2746.16" x2="-5470.45" y2="3066.19" gradientTransform="matrix(-1, 0, 0, 1, -2256.17, 0)" xlink:href="#linear-gradient-7"/><linearGradient id="linear-gradient-18" x1="4481.31" y1="2922.66" x2="4525.3" y2="2922.66" gradientTransform="matrix(-1, 0, 0, 1, 7706.39, 0)" xlink:href="#linear-gradient-12"/><linearGradient id="linear-gradient-19" x1="4714.35" y1="2919.78" x2="4751.01" y2="2919.78" gradientTransform="matrix(-1, 0, 0, 1, 7706.39, 0)" xlink:href="#linear-gradient-12"/><linearGradient id="linear-gradient-20" x1="3111.41" y1="2477.11" x2="3416.8" y2="1496.84" gradientTransform="matrix(1, 0, 0, 1, 0, 0)" xlink:href="#linear-gradient-7"/><linearGradient id="linear-gradient-21" x1="2983.57" y1="2464.73" x2="3032.39" y2="2192.03" gradientTransform="matrix(1, 0, 0, 1, 0, 0)" xlink:href="#linear-gradient-7"/><linearGradient id="linear-gradient-22" x1="2739.53" y1="2158.02" x2="3035.8" y2="2174.85" xlink:href="#linear-gradient-13"/><linearGradient id="linear-gradient-23" x1="4823.82" y1="2008.09" x2="4841.88" y2="1896.7" gradientTransform="matrix(-1, 0, 0, 1, 7706.39, 0)" xlink:href="#linear-gradient-12"/><linearGradient id="linear-gradient-24" x1="2708.76" y1="1398.02" x2="2269.28" y2="2070.16" gradientTransform="translate(568.76 -681.81) rotate(15.58)" xlink:href="#linear-gradient-2"/><linearGradient id="linear-gradient-25" x1="2761.39" y1="2009.73" x2="3182" y2="1429.29" xlink:href="#linear-gradient-2"/><linearGradient id="linear-gradient-26" x1="1784.04" y1="17.95" x2="1916.58" y2="369.19" gradientTransform="translate(1409.28 924.69) rotate(41.18)" xlink:href="#linear-gradient-12"/><linearGradient id="linear-gradient-27" x1="3056.08" y1="2068.61" x2="2789.63" y2="2365.21" gradientTransform="matrix(1, 0, 0, 1, 0, 0)" xlink:href="#linear-gradient-12"/><linearGradient id="linear-gradient-28" x1="2746.99" y1="2026.72" x2="3043.26" y2="2043.55" xlink:href="#linear-gradient-13"/><linearGradient id="linear-gradient-29" x1="3075.3" y1="2085.87" x2="2808.85" y2="2382.48" gradientTransform="matrix(1, 0, 0, 1, 0, 0)" xlink:href="#linear-gradient-12"/><linearGradient id="linear-gradient-30" x1="-7482.28" y1="-3105.75" x2="-7517.34" y2="-3221.37" gradientTransform="matrix(-0.75, -0.67, -0.67, 0.75, -4843.62, -803.17)" xlink:href="#linear-gradient-12"/><linearGradient id="linear-gradient-31" x1="-7513.91" y1="-3307.21" x2="-7484.58" y2="-3139.95" gradientTransform="matrix(-0.75, -0.67, -0.67, 0.75, -4843.62, -803.17)" xlink:href="#linear-gradient-2"/><linearGradient id="linear-gradient-32" x1="-7518.12" y1="-3106.28" x2="-7549.66" y2="-3210.32" gradientTransform="matrix(-0.75, -0.67, -0.67, 0.75, -4843.62, -803.17)" xlink:href="#linear-gradient-12"/><linearGradient id="linear-gradient-33" x1="2693.8" y1="2783.02" x2="2739.25" y2="2446.36" gradientTransform="matrix(1, 0, 0, 1, 0, 0)" xlink:href="#linear-gradient-7"/><linearGradient id="linear-gradient-34" x1="2746.29" y1="2290.82" x2="2726.09" y2="2422.12" gradientTransform="matrix(1, 0, 0, 1, 0, 0)" xlink:href="#linear-gradient-7"/><linearGradient id="linear-gradient-35" x1="2240.74" y1="2112.04" x2="2219.56" y2="2211.92" xlink:href="#linear-gradient-2"/><linearGradient id="linear-gradient-36" x1="942.72" y1="1020.65" x2="952.03" y2="1020.65" gradientTransform="matrix(1, 0, 0, 1, 0, 0)" xlink:href="#linear-gradient-12"/><linearGradient id="linear-gradient-37" x1="943.57" y1="759.07" x2="1638.81" y2="759.07" gradientTransform="matrix(1, 0, 0, 1, 0, 0)" xlink:href="#linear-gradient-12"/><linearGradient id="linear-gradient-38" x1="1672.48" y1="687.05" x2="1692.26" y2="687.05" gradientTransform="matrix(1, 0, 0, 1, 0, 0)" xlink:href="#linear-gradient-12"/><linearGradient id="linear-gradient-39" x1="1804.02" y1="998.72" x2="1812.51" y2="998.72" gradientTransform="matrix(1, 0, 0, 1, 0, 0)" xlink:href="#linear-gradient-12"/><linearGradient id="linear-gradient-40" x1="1099.49" y1="1241.52" x2="1806.87" y2="1241.52" gradientTransform="matrix(1, 0, 0, 1, 0, 0)" xlink:href="#linear-gradient-12"/><linearGradient id="linear-gradient-41" x1="1049.04" y1="1281.42" x2="1068.2" y2="1281.42" gradientTransform="matrix(1, 0, 0, 1, 0, 0)" xlink:href="#linear-gradient-12"/><linearGradient id="linear-gradient-42" x1="1050.17" y1="988.19" x2="1706.46" y2="988.19" xlink:href="#linear-gradient-13"/><linearGradient id="linear-gradient-43" x1="1796.66" y1="1102.53" x2="1815.23" y2="1102.53" gradientTransform="matrix(1, 0, 0, 1, 0, 0)" xlink:href="#linear-gradient-12"/><linearGradient id="linear-gradient-44" x1="1851.66" y1="1221.15" x2="2064.71" y2="1221.15" gradientTransform="matrix(1, 0, 0, 1, 0, 0)" xlink:href="#linear-gradient-12"/><linearGradient id="linear-gradient-45" x1="2027.72" y1="1393.9" x2="2040.62" y2="1393.9" gradientTransform="matrix(1, 0, 0, 1, 0, 0)" xlink:href="#linear-gradient-12"/><linearGradient id="linear-gradient-46" x1="1895" y1="1486.96" x2="1913.85" y2="1486.96" gradientTransform="matrix(1, 0, 0, 1, 0, 0)" xlink:href="#linear-gradient-12"/><linearGradient id="linear-gradient-47" x1="1661.49" y1="1359.37" x2="1858.89" y2="1359.37" gradientTransform="matrix(1, 0, 0, 1, 0, 0)" xlink:href="#linear-gradient-12"/><linearGradient id="linear-gradient-48" x1="1690.67" y1="1183.62" x2="1704.05" y2="1183.62" gradientTransform="matrix(1, 0, 0, 1, 0, 0)" xlink:href="#linear-gradient-12"/><linearGradient id="linear-gradient-49" x1="1711.28" y1="1292.73" x2="2018.51" y2="1292.73" xlink:href="#linear-gradient-13"/><linearGradient id="linear-gradient-50" x1="-2158.53" y1="1373.42" x2="-2009.95" y2="1767.15" gradientTransform="matrix(-1, 0, 0, 1, -929.11, 0)" xlink:href="#linear-gradient-12"/><linearGradient id="linear-gradient-51" x1="1054.82" y1="881.59" x2="1105.32" y2="1224.99" gradientTransform="matrix(1, 0, 0, 1, 0, 0)" xlink:href="#linear-gradient-7"/><linearGradient id="linear-gradient-52" x1="10898.69" y1="2155.51" x2="11046.21" y2="2155.51" gradientTransform="translate(-9962.55)" xlink:href="#linear-gradient-2"/><linearGradient id="linear-gradient-53" x1="1009.9" y1="1856.52" x2="1009.9" y2="2161.86" gradientTransform="matrix(1, 0, 0, 1, 0, 0)" xlink:href="#linear-gradient-7"/><linearGradient id="linear-gradient-54" x1="10639.56" y1="2155.88" x2="10708.63" y2="2155.88" gradientTransform="translate(-9962.55)" xlink:href="#linear-gradient-2"/><linearGradient id="linear-gradient-55" x1="686.17" y1="1928.45" x2="717.22" y2="2254.49" gradientTransform="matrix(1, 0, 0, 1, 0, 0)" xlink:href="#linear-gradient-7"/><linearGradient id="linear-gradient-56" x1="10668.78" y1="2108.26" x2="10713.59" y2="2108.26" gradientTransform="translate(-9962.55)" xlink:href="#linear-gradient-12"/><linearGradient id="linear-gradient-57" x1="10906.2" y1="2105.33" x2="10943.55" y2="2105.33" gradientTransform="translate(-9962.55)" xlink:href="#linear-gradient-12"/><linearGradient id="linear-gradient-58" x1="1117.64" y1="1192.14" x2="837.26" y2="2093.9" gradientTransform="matrix(1, 0, 0, 1, 0, 0)" xlink:href="#linear-gradient-7"/><linearGradient id="linear-gradient-59" x1="10999.08" y1="1531.07" x2="10846.2" y2="1728.72" gradientTransform="translate(-9962.55)" xlink:href="#linear-gradient-2"/><linearGradient id="linear-gradient-60" x1="1328.01" y1="1119.28" x2="876.87" y2="1422.29" gradientTransform="matrix(1, 0, 0, 1, 0, 0)" xlink:href="#linear-gradient-7"/><linearGradient id="linear-gradient-61" x1="999.26" y1="1158.03" x2="1164.23" y2="969.5" gradientTransform="matrix(1, 0, 0, 1, 0, 0)" xlink:href="#linear-gradient-12"/><linearGradient id="linear-gradient-62" x1="10982.45" y1="1065" x2="10863.41" y2="1156.08" gradientTransform="translate(-9962.55)" xlink:href="#linear-gradient-12"/><linearGradient id="linear-gradient-63" x1="10993.53" y1="920.64" x2="11101.31" y2="1059.41" gradientTransform="translate(-9962.55)" xlink:href="#linear-gradient-2"/><linearGradient id="linear-gradient-64" x1="11062.39" y1="973.24" x2="10943.35" y2="1064.32" gradientTransform="translate(-9962.55)" xlink:href="#linear-gradient-12"/><linearGradient id="linear-gradient-65" x1="507.94" y1="1514.94" x2="1479.54" y2="1514.94" xlink:href="#linear-gradient"/><linearGradient id="linear-gradient-66" x1="1408.43" y1="1348.52" x2="1812.4" y2="1348.52" xlink:href="#linear-gradient"/><linearGradient id="linear-gradient-67" x1="-1144.31" y1="17917.94" x2="-1007.97" y2="16943.33" gradientTransform="matrix(-0.25, -0.97, -0.97, 0.25, -2938.61, 4675.63)" xlink:href="#linear-gradient-2"/><linearGradient id="linear-gradient-68" x1="-368.59" y1="14228.2" x2="-232.24" y2="13253.6" gradientTransform="matrix(-0.25, -0.97, -1.2, 0.3, -2694.01, 4613.85)" xlink:href="#linear-gradient-2"/><linearGradient id="linear-gradient-69" x1="-1733.17" y1="1390.02" x2="-1566.02" y2="1631.46" gradientTransform="matrix(-1, 0, 0, 1, -929.11, 0)" xlink:href="#linear-gradient-12"/><linearGradient id="linear-gradient-70" x1="1244.73" y1="995.29" x2="793.59" y2="1298.3" gradientTransform="matrix(1, 0, 0, 1, 0, 0)" xlink:href="#linear-gradient-7"/><linearGradient id="linear-gradient-71" x1="-2263.03" y1="1412.85" x2="-2114.45" y2="1806.59" gradientTransform="matrix(-1, 0, 0, 1, -929.11, 0)" xlink:href="#linear-gradient-12"/><linearGradient id="linear-gradient-72" x1="-1797.19" y1="1433.73" x2="-1628.1" y2="1677.97" gradientTransform="matrix(-1, 0, 0, 1, -929.11, 0)" xlink:href="#linear-gradient-12"/><linearGradient id="linear-gradient-73" x1="2100.93" y1="3188.24" x2="2245.7" y2="2582.23" xlink:href="#linear-gradient-13"/><linearGradient id="linear-gradient-74" x1="2271.61" y1="3132.74" x2="2352.41" y2="2503.17" xlink:href="#linear-gradient-13"/><linearGradient id="linear-gradient-75" x1="2178.13" y1="2630.72" x2="2131" y2="2970.76" gradientUnits="userSpaceOnUse"><stop offset="0" stop-color="#e1473d"/><stop offset="1" stop-color="#e9605a"/></linearGradient><linearGradient id="linear-gradient-76" x1="3265.2" y1="155.38" x2="3029.53" y2="747.92" xlink:href="#linear-gradient-13"/></defs><g id="Illustration"><path class="cls-1" d="M3134.09,2350.83c-281.21,657.32-1023.54,939.65-1605.16,891.51-158.81-13.14-478.34-39.59-727.82-275.52C322,2513.73,395.78,1566.64,854.43,1009.05c59.07-71.8,467.91-552.9,1105-546.46,466.45,4.72,793.85,268.21,833.66,301,50.29,41.46,161.21,140,261.18,296.34C3289.18,1427.29,3309.83,1940.07,3134.09,2350.83Z" transform="translate(-456.25 -462.53)"/><path class="cls-2" d="M3127.82,2755.29c0,27.15-20.42,49.36-45.38,49.36H628.76c-25,0-45.37-22.21-45.37-49.36L563,1219.77c0-27.15,29.37-80.16,83.21-76.17l2398-67.57c31.31-.88,61.59,12.24,83.76,36.31s34.31,57,33.57,91Z" transform="translate(-456.25 -462.53)"/><path class="cls-3" d="M3083,2707.93c0,25.71-19.31,46.75-42.92,46.75H687.93c-23.61,0-42.92-21-42.92-46.75L625.74,1314c2.27-83.88,69.8-114,110.74-112.25l2298.28-67.15c22-.64,43.26,8.59,58.85,25.51s24.15,40.09,23.59,64Z" transform="translate(-456.25 -462.53)"/><path class="cls-4" d="M15.44,2334.68h2766.5a7.5,7.5,0,0,1,7.5,7.5v119.91a7.51,7.51,0,0,1-7.51,7.51H15.44a7.51,7.51,0,0,1-7.51-7.51V2342.18A7.51,7.51,0,0,1,15.44,2334.68Z"/><path class="cls-5" d="M720,1284.38,2357,1246c26.62-.63,48.66,15.21,48.66,35v18.2c0,19-20.4,34.49-46,35L723.43,1364.89c-25.6.48-47-14.28-48.31-33.25l-.7-10.57C673.12,1301.53,693.68,1285,720,1284.38Z" transform="translate(-456.25 -462.53)"/><path class="cls-6" d="M2356.78,1289.4c3.47-27.72-15.78-53-43-56.38s-52.12,16.3-55.59,44a50.85,50.85,0,0,0,11.07,38.66l-50.69,39a7.05,7.05,0,0,0-.71,10.33l.46.49a6.56,6.56,0,0,0,9.3.25l46-45.35a48.76,48.76,0,0,0,27.52,13C2328.41,1336.84,2353.3,1317.13,2356.78,1289.4Zm-53.91,30.6c-19.95-2.5-34-21-31.5-41.3s20.77-34.75,40.72-32.25,34,21,31.5,41.3S2322.81,1322.5,2302.87,1320Z" transform="translate(-456.25 -462.53)"/><path class="cls-5" d="M689.22,1993.59,716.51,2654c.92,22.26,32,39.94,69.7,39.63l801.42-6.52c37.68-.31,67.92-18.47,67.83-40.72l-2.79-666.63c-.09-22.81-32-41.11-70.56-40.51L756.18,1952C718.25,1952.56,688.29,1971.18,689.22,1993.59Z" transform="translate(-456.25 -462.53)"/><path class="cls-5" d="M1809.56,1409.12,2312,1403c51.42-.63,94.06,16.07,94.49,37l8.53,415.17c.43,20.92-41.46,37.9-92.87,37.64l-523-2.61c-29.42-.14-53.28-9.74-54-21.72l-24.52-421.17C1719.38,1426.8,1759.13,1409.73,1809.56,1409.12Z" transform="translate(-456.25 -462.53)"/><path class="cls-5" d="M815.31,1399.61l714.93-6.29c73.18-.65,133.85,16.56,134.47,38.14l12.14,427.86c.61,21.57-59,39.07-132.17,38.8l-744.28-2.69c-41.87-.15-75.82-10-76.82-22.38L688.68,1439C687,1417.83,743.55,1400.24,815.31,1399.61Z" transform="translate(-456.25 -462.53)"/><path class="cls-5" d="M1808.37,1943.73l502.39-9.7c51.43-1,94.06,25.51,94.49,58.73l8.54,658.87c.43,33.2-41.47,60.15-92.88,59.74l-523-4.14c-29.43-.24-53.29-15.47-54-34.47l-24.53-668.4C1718.19,1971.79,1757.94,1944.7,1808.37,1943.73Z" transform="translate(-456.25 -462.53)"/><path class="cls-5" d="M2545.91,1227.5l392-6.31c40.12-.65,73.38,16.6,73.71,38.22l6.66,428.83c.34,21.61-32.35,39.15-72.46,38.89l-408-2.7c-22.95-.15-41.57-10.07-42.11-22.43l-19.13-435C2475.55,1245.76,2506.56,1228.13,2545.91,1227.5Z" transform="translate(-456.25 -462.53)"/><path class="cls-5" d="M2555.54,1784.71l391.95-5c40.11-.51,73.38,13,73.71,30l6.66,336.47c.33,17-32.35,30.72-72.46,30.51l-408-2.12c-23-.12-41.57-7.9-42.11-17.6l-19.14-341.34C2485.18,1799,2516.19,1785.2,2555.54,1784.71Z" transform="translate(-456.25 -462.53)"/><path class="cls-7" d="M2574.23,2251.89l391.95-5.7c40.12-.58,73.38,15,73.72,34.53l6.65,387.32c.34,19.52-32.35,35.36-72.45,35.12l-408-2.43c-23-.14-41.57-9.09-42.12-20.26l-19.13-392.94C2503.88,2268.38,2534.89,2252.46,2574.23,2251.89Z" transform="translate(-456.25 -462.53)"/><path class="cls-8" d="M2625,743.43c.47-1.06.94-2.13,1.44-3.18,24.09-50.83,64-61.35,99.11-44.7s52.26,54.19,28.16,105c-.21.43-.44.87-.65,1.31C2729.32,784.15,2683.83,755.44,2625,743.43Z" transform="translate(-456.25 -462.53)"/><path class="cls-9" d="M2753,801.89c-24.43,50.29-79.92,94.27-114.76,77.76-34.42-16.31-35.89-85.61-13.3-136.22C2683.83,755.44,2729.32,784.15,2753,801.89Z" transform="translate(-456.25 -462.53)"/><path class="cls-10" d="M2691.63,716.33a457.32,457.32,0,0,0,30.83-67.1c4-11.67,7.62-23.58,9.53-36a93,93,0,0,0,1.13-18.92,41.44,41.44,0,0,0-5.14-18.93,28.39,28.39,0,0,0-15.69-12.61,48.55,48.55,0,0,0-19.5-2.17c-6.49.46-13.53,2.38-18.94,7.29-5.57,4.83-7.91,12.22-8.3,18.9a48.45,48.45,0,0,0,3.19,19.55c2.31,6.15,5.4,12,10.39,17.06,2.55,2.4,5.57,5,10.22,5.62a11.41,11.41,0,0,0,6.94-1.39,15.94,15.94,0,0,0,4.72-4.36c4.12-6.51,5.07-13,6-19.39a4.38,4.38,0,1,0-8.66-1.33s0,.08,0,.13l0,.2c-.68,5.69-1.83,11.62-4.28,15.57-1.37,1.82-2.4,2.45-3.77,2.33s-3.68-1.46-5.51-3.22c-3.77-3.6-6.7-8.72-8.74-14a40.94,40.94,0,0,1-3-16.42c.26-5.4,1.89-10.66,5.7-14s9-5.23,14.65-5.71c11.37-1.17,23.7,1.54,29.25,11.13a35.39,35.39,0,0,1,4.58,16.14,87.27,87.27,0,0,1-.76,17.72c-1.62,11.88-4.91,23.62-8.69,35.16a452.4,452.4,0,0,1-29.35,66.9l0,.05a1.84,1.84,0,0,0,3.23,1.76Z" transform="translate(-456.25 -462.53)"/><path class="cls-11" d="M2730.6,734.52a453.32,453.32,0,0,1,33.21-65.08c6.54-10.23,13.54-20.21,21.71-29a87.67,87.67,0,0,1,13.23-11.81,35.44,35.44,0,0,1,15.4-6.67c10.94-1.77,20.83,6,27.14,15.6,3.18,4.65,5.22,9.91,4.85,14.95-.19,5.07-3.22,9.67-7.24,13.29a41,41,0,0,1-14.62,8.06c-5.35,1.75-11.17,2.72-16.35,2.09-2.52-.3-4.94-1.12-6-2.23s-1.12-2.18-.59-4.39c1.51-4.4,5.38-9.05,9.35-13.17l.13-.14a4.38,4.38,0,1,0-6.31-6.08l-.1.11c-4.31,4.79-8.76,9.64-11.19,17a16,16,0,0,0-.38,6.42,11.39,11.39,0,0,0,3.32,6.25c3.46,3.18,7.34,3.9,10.81,4.35,7.05.69,13.57-.65,19.79-2.76a48.34,48.34,0,0,0,17.15-9.91c4.93-4.53,9.16-11,9.38-18.38.37-7.3-2.6-14-6.36-19.28a48.4,48.4,0,0,0-14-13.72,28.41,28.41,0,0,0-19.69-4.17,41.41,41.41,0,0,0-17.91,8,92.58,92.58,0,0,0-13.93,12.85c-8.38,9.32-15.33,19.64-21.8,30.15a457.32,457.32,0,0,0-32.43,66.34,1.84,1.84,0,0,0,3.41,1.4Z" transform="translate(-456.25 -462.53)"/><path class="cls-12" d="M2700.8,758.54s-20.61,185.92,52.14,196.15S2820.05,858.25,2700.8,758.54Z" transform="translate(-456.25 -462.53)"/><path class="cls-12" d="M2700.8,758.54S2569.94,892.2,2516,842.37,2548.12,729.37,2700.8,758.54Z" transform="translate(-456.25 -462.53)"/><path class="cls-12" d="M2689.7,765.24s-175.81,63.87-202.91-4.41S2564.68,672.87,2689.7,765.24Z" transform="translate(-456.25 -462.53)"/><path class="cls-12" d="M2707.91,773.87s61.87,176.52,131.89,154.27S2858.57,812.15,2707.91,773.87Z" transform="translate(-456.25 -462.53)"/><path class="cls-13" d="M2751.93,943a4.49,4.49,0,0,0,1.87.42c16.57,0,27.78-5.19,33.31-15.53,16.24-30.37-26.43-94.55-28.25-97.27a4.38,4.38,0,0,0-7.28,4.89c11.61,17.3,39.23,66.88,27.8,88.26-3.88,7.25-12.48,10.91-25.56,10.88a4.39,4.39,0,0,0-1.89,8.35Z" transform="translate(-456.25 -462.53)"/><path class="cls-14" d="M2697.33,765.86s-62.07-96.27-98.52-113.54c-39.3-18.61-99.2-1.25-128.63,9.46a6.31,6.31,0,0,0,.46,12C2537.85,693.51,2615.59,727.06,2697.33,765.86Z" transform="translate(-456.25 -462.53)"/><path class="cls-15" d="M2691,762.85s113.82-12.91,150.26,4.38c39.29,18.63,63.78,76,74.12,105.54a6.32,6.32,0,0,1-9.58,7.25C2848,840.49,2772.77,801.56,2691,762.85Z" transform="translate(-456.25 -462.53)"/><path class="cls-16" d="M2891.84,852.45a4.38,4.38,0,0,0,5.89-5.73c-1.58-3.57-39.3-87.37-102-81.69a4.38,4.38,0,1,0,.79,8.73c56.5-5.12,92.83,75.68,93.2,76.5A4.37,4.37,0,0,0,2891.84,852.45Z" transform="translate(-456.25 -462.53)"/><path class="cls-17" d="M2435.58,2744.09l-17.9-1141.91c-.19-12.53,11.89-22.77,26.86-22.77h0c24.22,0,43.85-16.43,43.85-36.7V1263.78c0-17.75,17.57-32,38.78-31.39l96.58,2.68c23.77.66,42.76,16.79,43.21,36.69l33,1472.33Z" transform="translate(-456.25 -462.53)"/><path class="cls-18" d="M2703.45,2169.61l.4,12.5c38.43,53.5,73.38,39.85,97.45,23.8-14.48-36-17.06-40-28.62-52.54C2729.23,2185,2703.45,2169.61,2703.45,2169.61Z" transform="translate(-456.25 -462.53)"/><path class="cls-19" d="M2878.57,2110.9,2811,2005.16c-4.44,59.64-15,115.5-38.27,148.21,11.56,12.52,14.14,16.5,28.62,52.54C2861.39,2165.84,2878.57,2110.9,2878.57,2110.9Z" transform="translate(-456.25 -462.53)"/><path class="cls-20" d="M2945,2998.23c-33.72,1.55-66.36.57-88.15-.55,19.84-14.12,65.55-44.84,103.8-57.07l26.25-1.57s8.9,13.53,12.07,44.49C2994.59,2989,2981.88,2996.53,2945,2998.23Z" transform="translate(-456.25 -462.53)"/><path class="cls-21" d="M2856.55,2997.88a2.69,2.69,0,0,0,.27-.2c21.79,1.12,54.43,2.1,88.15.55,36.91-1.7,49.62-9.27,54-14.7.15,1.43.3,2.84.42,4.34a12.3,12.3,0,0,1-11.29,13.28c-27.62,2.09-96.08,6.81-129.1,5.08A4.6,4.6,0,0,1,2856.55,2997.88Z" transform="translate(-456.25 -462.53)"/><path class="cls-22" d="M3186.12,2989.2c2.47-15.82,6.42-38.71,9.48-44.56,4.8-9.17,21.23,0,21.23,0s11.54,5.38,16.84,14.35c3.39,5.71,12.75,22,19.09,33a7.37,7.37,0,0,1,1,3.93l-65.78,2.3A13.11,13.11,0,0,1,3186.12,2989.2Z" transform="translate(-456.25 -462.53)"/><path class="cls-23" d="M3253.75,2995.93a7.5,7.5,0,0,1-7.29,7.28l-46.87,1.29a13.23,13.23,0,0,1-11.62-6.27Z" transform="translate(-456.25 -462.53)"/><path class="cls-24" d="M3181.09,2892c.57,1.9,9.07,43.11,12.79,61.2a10.32,10.32,0,0,0,10.63,8.25c2.78-.14,6-.39,9.42-.83a12.46,12.46,0,0,0,10.84-11.88c.61-15.84.9-46.26-4.91-58.05C3211.83,2874.46,3181.09,2892,3181.09,2892Z" transform="translate(-456.25 -462.53)"/><path class="cls-25" d="M2992,2903.83c-3.65-.11,1.45,18.83-4.06,37.44-1.25,4.2-4.39,7.5-8.77,7.55-2.83,0-6.2,0-9.61-.29a10.57,10.57,0,0,1-9.74-9.52l-4.49-48.29Z" transform="translate(-456.25 -462.53)"/><path class="cls-26" d="M2890.06,2390.56c1.63,7.92,59.06,342.94,62.55,516.3a5.9,5.9,0,0,0,5.07,5.74c7.3,1,21.5,2.33,35.27-.23a4.16,4.16,0,0,0,3.42-3.81c2-32.31,18.15-305.45-1.62-434,0,0,163.31,343.71,188.07,438.49a5,5,0,0,0,5.1,3.73c7-.37,21.54-1.63,33.09-5.88a8.63,8.63,0,0,0,5.45-10.16c-13.83-56.72-110.76-447.5-176.57-533.6Z" transform="translate(-456.25 -462.53)"/><path class="cls-27" d="M2994.75,2476.67a2.14,2.14,0,0,0,1.53-3.64l-21.87-22.36a2.14,2.14,0,1,0-3.06,3l21.87,22.36A2.12,2.12,0,0,0,2994.75,2476.67Z" transform="translate(-456.25 -462.53)"/><path class="cls-28" d="M2796.7,1971.12c42-11,119.34-28.38,180.93-24.53,20.12,1.26,23.93,20.21,24.73,34.36,9.31,164,23.58,301.46,47.53,386.16-53.83,21.3-107.19,31.18-159.83,23.45q-59.16-126.72-103.38-292.75s-17.29-88.33-.5-117.77C2788.79,1975.45,2792.24,1972.29,2796.7,1971.12Z" transform="translate(-456.25 -462.53)"/><path class="cls-29" d="M2897.61,1856.2s10.59,63.19,13.75,92.42a11.43,11.43,0,0,1-6.22,11.42c-11.58,6-36.29,15.56-63.23,6.75a10.68,10.68,0,0,1-7.24-10.4l1.85-84.37Z" transform="translate(-456.25 -462.53)"/><path class="cls-30" d="M2642.89,1523a3.13,3.13,0,0,0,1.19-4.25l-4.3-7.62-.33.18-25.31-41a3.12,3.12,0,0,0-4.29-1l-4.79,3a3.11,3.11,0,0,0-1,4.29l23.36,37.89a3.13,3.13,0,0,1-1.12,4.36l-183.61,103.54a3.11,3.11,0,0,0-1.18,4.25l4.3,7.62.06,0,59.66,105.8a3.12,3.12,0,0,0,4.25,1.18l4.91-2.76a3.12,3.12,0,0,0,1.18-4.25L2457.72,1631a3.12,3.12,0,0,1,1.19-4.25Z" transform="translate(-456.25 -462.53)"/><rect class="cls-31" x="2183.62" y="1481.86" width="436.87" height="99.35" transform="translate(-898.79 914.86) rotate(-29.42)"/><path class="cls-32" d="M2899.9,2473.81l-28.15,14.25a1.5,1.5,0,0,1-2-.66l-381.86-754.35a1.49,1.49,0,0,1,.66-2l28.14-14.25a1.5,1.5,0,0,1,2,.66l381.87,754.35A1.49,1.49,0,0,1,2899.9,2473.81Z" transform="translate(-456.25 -462.53)"/><ellipse class="cls-31" cx="2211.61" cy="1638.52" rx="18.57" ry="50.05" transform="translate(-975.89 835.11) rotate(-29.42)"/><ellipse class="cls-31" cx="2589.65" cy="1425.75" rx="18.57" ry="50.05" transform="translate(-822.63 993.36) rotate(-29.42)"/><path class="cls-33" d="M2697.3,2171.53a16.06,16.06,0,0,1-1.9-13.63c2.75-9,8.54-22.09,18.19-19.18,14.38,4.32,16.31,39.86,16.31,39.86l-3.82,22.81,4.8,11.37C2721.37,2208.17,2709.69,2191.74,2697.3,2171.53Z" transform="translate(-456.25 -462.53)"/><path class="cls-34" d="M3030.2,2251.81c5.89-8.24,11.77-17.27,17.59-27.23,57.54-98.55-48-249.47-48-249.47l-32.17,95.74c47.55,53,27.58,104.2,11.41,146.65-21.18,55.58-112.78,102.7-112.78,102.7l17.45,21.53S2977.88,2325.16,3030.2,2251.81Z" transform="translate(-456.25 -462.53)"/><path class="cls-35" d="M3066.37,2125.58c-1.19-76.52-62-157.8-73.06-172.1a1.71,1.71,0,0,0-2.9.36l-22.78,117c9.68,22.62,7.71,36.84,17.37,57.21,26.13-3.66,50.4-3.85,76.18,1.74A4.26,4.26,0,0,0,3066.37,2125.58Z" transform="translate(-456.25 -462.53)"/><path class="cls-36" d="M2866.26,2320.2c-5.35-2.71-47.28,3.4-40.85,9.16,11.27,10.12,11.76,17.77-.09,27.23-5.84,4.67-19.29,11.76-23,.86-1-3.07-1.17-7-4.09-8.44-2.15-1-8.25,6.35-8.62,8.71-2,13.28,8.57,24.32,20.25,28.72,5.67,2.14,11.71,3,17.7,3.95,3.33.5,11.65,1.74,12.39,1.42s1.38-1.26,2-2c2.73-3,17.35-15.34,20.53-19.46,1.72-2.23,23.64-29.85,22.52-32.5C2885.06,2337.88,2870.79,2322.49,2866.26,2320.2Z" transform="translate(-456.25 -462.53)"/><path class="cls-37" d="M2824.26,1788.87s-33.87,63.76-29.53,89.52,46.32,23.91,83,3l25.62-68.85Z" transform="translate(-456.25 -462.53)"/><path class="cls-38" d="M2876.09,1847.57a2.63,2.63,0,0,1-1.15-3.85c2.72-4.15,7.8-12.6,9.43-20,0,0,6.09-3.9-15.5-9.07s-53.78-13.18-60.55-31.56c-6.6-17.92,10.74-63,38.39-27.07a2.64,2.64,0,0,0,4.17,0c4.53-5.9,16.45-18.15,33-10.73,15.48,7,17.23,18.3,17,24a2.63,2.63,0,0,0,3.1,2.68c7.83-1.5,26.62-2.78,35.39,16.49,7.22,15.88,2.53,24.87-1.75,29.26a2.62,2.62,0,0,0,1.12,4.35c5.15,1.58,11.79,5.94,11.13,18-.92,16.66-19.56,15.19-24.86,14.43a2.66,2.66,0,0,0-2.34.83c-4.54,5-25,26.41-47.22,29a2.65,2.65,0,0,1-2.78-3.5l9.6-27.9a2.66,2.66,0,0,0-1.43-3.28Z" transform="translate(-456.25 -462.53)"/><path class="cls-39" d="M2872.23,1851.53s24.12-16.55,25.88-2.62-21.72,20.19-33.35,15Z" transform="translate(-456.25 -462.53)"/><path class="cls-5" d="M2799.79,3000.44c-74.08,24.75-146.06,24.77-215.46,2.16a42.64,42.64,0,0,1-29.43-40.52V2622.14c85.29,18.77,174.69,19.73,268.87,0v345.2A34.94,34.94,0,0,1,2799.79,3000.44Z" transform="translate(-456.25 -462.53)"/><ellipse class="cls-31" cx="2233.09" cy="2156.9" rx="134.43" ry="27.02"/><path class="cls-40" d="M2823.77,2883.89q-134.43,46.77-268.87,0V2748.28c90.43,22.3,180.09,23.43,268.87,0Z" transform="translate(-456.25 -462.53)"/><path class="cls-41" d="M2569.32,2653c2.88,10.77,15.16,18,26,15.36,7.59-1.87,14.07-7.81,21.88-7.94,8.87-.15,16,7.17,21.12,14.37a142.5,142.5,0,0,1,21,43.28c1.49,5.15,2.82,10.62,6.44,14.59,7.74,8.48,22.39,5.76,31-1.84s13.29-18.58,19.69-28.12,16.23-18.44,27.69-17.75c3.84.23,7.56,1.55,11.4,1.71a19.75,19.75,0,0,0,19.23-13.85c.72-2.51.95-5.21,2.24-7.48,3.89-6.8,14.16-7.46,19.47-13,3.37-3.5,4.5-8.58,8.43-12,1.48-1.3,11.68-5.52,11.89-6.16,1.79-5.48-3.91-10.43-9.17-12.78-30.92-13.76-66.24,0-99.75,4.65-32.92,4.61-64.42-2.9-97-2.62C2592.9,2623.65,2562.61,2628,2569.32,2653Z" transform="translate(-456.25 -462.53)"/><ellipse class="cls-31" cx="2234.65" cy="2157.67" rx="134.43" ry="27.02"/><ellipse class="cls-42" cx="2231.06" cy="2157.67" rx="110.67" ry="16.34"/><path class="cls-31" d="M1224.93,2973.89H498.21a42,42,0,0,1-42-42V2230.24a42,42,0,0,1,41.84-42l732.54-2a42,42,0,0,1,42.07,42.18l-5.81,703.66A42,42,0,0,1,1224.93,2973.89Z" transform="translate(-456.25 -462.53)"/><path class="cls-5" d="M1189.32,2240l-649.81,4a42.57,42.57,0,0,0-42.31,42.77L501.73,2877a42.58,42.58,0,0,0,41.8,42.37l631.37,11.52a42.58,42.58,0,0,0,43.35-42l13.9-605.68A42.56,42.56,0,0,0,1189.32,2240Z" transform="translate(-456.25 -462.53)"/><rect class="cls-16" x="180.5" y="1819.49" width="526.15" height="29.95" rx="12.74"/><path class="cls-16" d="M1107,2351.11h0a12.74,12.74,0,0,1-12.49,12l-437.87,8a12.73,12.73,0,0,1-13-12.73v-1a12.74,12.74,0,0,1,12.53-12.74l437.86-6.94A12.75,12.75,0,0,1,1107,2351.11Z" transform="translate(-456.25 -462.53)"/><path class="cls-43" d="M1151.73,2897.47h-.44l-592.23-7.11a36.3,36.3,0,0,1-35.85-37l15.24-416.75a36,36,0,0,1,11.12-25.35,36.34,36.34,0,0,1,25.87-10.13l591.2,11.5a36.36,36.36,0,0,1,35.58,36.93v.1L1188,2861.93A36.35,36.35,0,0,1,1151.73,2897.47Zm-577-484.25a24.22,24.22,0,0,0-24.2,23.76l-15.24,416.74a24.21,24.21,0,0,0,23.92,24.57l592.24,7.1h.29a24.28,24.28,0,0,0,24.21-23.79l14.21-412.28a24.27,24.27,0,0,0-23.75-24.6l-591.2-11.5Zm621.46,36.26h0Z" transform="translate(-456.25 -462.53)"/><path class="cls-43" d="M1188.51,2493.62h-645a6,6,0,0,1,0-12.08h645a6,6,0,1,1,0,12.08Z" transform="translate(-456.25 -462.53)"/><path class="cls-44" d="M950.67,1031.88a4.1,4.1,0,0,1-6.83-2.7c-.47-5.48-.85-11-1.12-16.51a4.1,4.1,0,0,1,8.2-.4c.26,5.37.63,10.83,1.1,16.21A4.09,4.09,0,0,1,950.67,1031.88Z" transform="translate(-456.25 -462.53)"/><path class="cls-45" d="M1637.45,648.71a4.09,4.09,0,0,1-5.19.24c-8.9-6.62-18.17-13-27.55-18.87a4.1,4.1,0,0,1,4.36-7c9.57,6,19,12.49,28.09,19.24a4.1,4.1,0,0,1,.84,5.74A4,4,0,0,1,1637.45,648.71Zm-76-45.18a4.1,4.1,0,0,1-4.47.68c-10-4.64-20.41-9-30.84-12.82a4.1,4.1,0,1,1,2.85-7.69c10.63,3.94,21.21,8.33,31.44,13.06a4.11,4.11,0,0,1,2,5.45A4.07,4.07,0,0,1,1561.5,603.53Zm-83.58-28.72a4.11,4.11,0,0,1-3.69,1c-10.82-2.53-21.85-4.66-32.79-6.33a4.1,4.1,0,0,1,1.24-8.11c11.15,1.7,22.4,3.88,33.42,6.46a4.1,4.1,0,0,1,1.82,7Zm-527.5,386a4.11,4.11,0,0,1-6.84-3.37c.9-11.25,2.25-22.62,4-33.8a4.1,4.1,0,0,1,8.1,1.29c-1.74,11-3.07,22.12-4,33.16A4.11,4.11,0,0,1,950.42,960.76Zm439.85-397.17a4.05,4.05,0,0,1-2.85,1c-11.07-.27-22.29-.1-33.36.51a4.1,4.1,0,1,1-.45-8.19c11.29-.62,22.73-.79,34-.51a4.08,4.08,0,0,1,4,4.19A4,4,0,0,1,1390.27,563.59ZM966.42,873.83a4.1,4.1,0,0,1-6.69-4.19c3.17-10.88,6.8-21.74,10.77-32.29a4.1,4.1,0,0,1,7.68,2.9c-3.91,10.34-7.46,21-10.58,31.68A4.1,4.1,0,0,1,966.42,873.83Zm335.79-303.25a4,4,0,0,1-2,1c-10.86,2-21.82,4.47-32.57,7.34a4.1,4.1,0,0,1-2.11-7.93c11-2.92,22.12-5.43,33.2-7.47a4.1,4.1,0,0,1,3.48,7.08ZM999.65,791.93a4.1,4.1,0,0,1-6.37-5c5.31-10,11.07-19.88,17.14-29.41a4.1,4.1,0,0,1,6.92,4.41c-6,9.35-11.61,19.06-16.82,28.85A4.05,4.05,0,0,1,999.65,791.93Zm217.78-196.49a4.07,4.07,0,0,1-1.2.75c-10.25,4.19-20.48,8.84-30.39,13.82a4.1,4.1,0,1,1-3.68-7.33c10.1-5.08,20.52-9.82,31-14.09a4.11,4.11,0,0,1,4.3,6.85Zm-78,41.57a5.9,5.9,0,0,1-.47.37c-9.19,6.17-18.26,12.8-27,19.69a4.1,4.1,0,0,1-5.77-.67,4.2,4.2,0,0,1,.67-5.76c8.87-7,18.12-13.78,27.49-20.08a4.1,4.1,0,0,1,5,6.45ZM1049,718.59a4.11,4.11,0,0,1-5.9-5.68c7.24-8.68,14.92-17.18,22.82-25.26a4.1,4.1,0,0,1,5.87,5.73c-7.75,7.93-15.28,16.27-22.39,24.79A4,4,0,0,1,1049,718.59Z" transform="translate(-456.25 -462.53)"/><path class="cls-46" d="M1690.9,695.9a4.1,4.1,0,0,1-5.7-.21c-3.73-3.88-7.58-7.75-11.46-11.5a4.1,4.1,0,0,1-.1-5.8,4.14,4.14,0,0,1,5.8-.1c4,3.82,7.88,7.76,11.68,11.72a4.11,4.11,0,0,1-.12,5.8Z" transform="translate(-456.25 -462.53)"/><path class="cls-47" d="M1810.87,1010a4.1,4.1,0,0,1-6.85-3.19c.2-5.42.3-10.89.29-16.24a4.1,4.1,0,1,1,8.2,0c0,5.46-.09,11-.29,16.56A4.08,4.08,0,0,1,1810.87,1010Z" transform="translate(-456.25 -462.53)"/><path class="cls-48" d="M1669.12,1314.24l-2.77,2.48a4.1,4.1,0,0,1-5.46-6.12l0,0,2.71-2.42c7.19-6.49,14.26-13.32,21-20.31a4.14,4.14,0,0,1,5.8-.1,4.1,4.1,0,0,1,.1,5.8C1683.66,1300.66,1676.45,1307.63,1669.12,1314.24Zm-45.2,35.62a5,5,0,0,1-.43.34c-9.17,6.28-18.7,12.29-28.33,17.86a4.1,4.1,0,0,1-4.1-7.11c9.45-5.46,18.8-11.36,27.79-17.52a4.1,4.1,0,0,1,5.07,6.43Zm101.36-97.15a4.1,4.1,0,0,1-6-5.51c6.54-8.74,12.82-17.84,18.65-27a4.1,4.1,0,1,1,6.93,4.38c-5.94,9.39-12.34,18.67-19,27.58A4.4,4.4,0,0,1,1725.28,1252.71Zm-177.65,138.87a4.07,4.07,0,0,1-1.16.73c-10.26,4.34-20.8,8.32-31.32,11.84a4.1,4.1,0,1,1-2.6-7.78c10.32-3.45,20.66-7.36,30.73-11.61a4.1,4.1,0,0,1,4.35,6.82ZM1770,1178.14a4.1,4.1,0,0,1-6.46-4.78c4.62-9.84,8.93-20,12.81-30.27a4.1,4.1,0,0,1,7.67,2.91c-4,10.44-8.35,20.82-13.06,30.84A3.93,3.93,0,0,1,1770,1178.14ZM1464.53,1417.2a4.11,4.11,0,0,1-1.93,1c-10.89,2.18-22,4-33.06,5.31a4.1,4.1,0,0,1-1-8.15c10.83-1.31,21.74-3.06,32.42-5.2a4.1,4.1,0,0,1,3.55,7.07Zm334.38-321.1a4.1,4.1,0,0,1-6.73-4c2.57-10.61,4.77-21.45,6.54-32.21a4.1,4.1,0,1,1,8.09,1.33c-1.79,11-4,22-6.66,32.81A4.16,4.16,0,0,1,1798.91,1096.1ZM1378,1425.55a4.07,4.07,0,0,1-2.77,1c-11.09,0-22.35-.55-33.46-1.48a4.1,4.1,0,0,1,.68-8.17c10.9.91,22,1.39,32.82,1.46a4.1,4.1,0,0,1,2.73,7.14Zm-86.45-9.29a4.07,4.07,0,0,1-3.6,1c-8.55-1.8-17.19-3.89-25.66-6.22-2.29-.62-4.56-1.27-6.82-1.93a4.1,4.1,0,0,1,2.29-7.87q3.33,1,6.69,1.89c8.33,2.28,16.8,4.34,25.2,6.11a4.1,4.1,0,0,1,3.16,4.86A4,4,0,0,1,1291.56,1416.26Zm-82.89-26.32a4.11,4.11,0,0,1-4.37.72c-10.21-4.41-20.38-9.28-30.22-14.46a4.1,4.1,0,0,1,3.83-7.26c9.65,5.09,19.62,9.86,29.64,14.19a4.1,4.1,0,0,1,1.12,6.81Zm-75.92-42.41a4.11,4.11,0,0,1-5.1.31c-9.1-6.38-18.08-13.2-26.67-20.27a4.1,4.1,0,0,1,5.21-6.34c8.44,7,17.24,13.64,26.16,19.89a4.1,4.1,0,0,1,.4,6.41Z" transform="translate(-456.25 -462.53)"/><path class="cls-49" d="M1066.85,1290.53a4.1,4.1,0,0,1-5.73-.23c-3.75-4-7.49-8.09-11.13-12.25a4.29,4.29,0,0,1,.39-5.79,4.1,4.1,0,0,1,5.79.39c3.56,4.08,7.24,8.12,10.91,12a4.11,4.11,0,0,1-.16,5.8Z" transform="translate(-456.25 -462.53)"/><path class="cls-50" d="M1102.77,1176.39a5.16,5.16,0,0,0,5.36,2.69l62.21-9.64a274.24,274.24,0,0,0,68.38,56.73l2,62.88a5.15,5.15,0,0,0,3.64,4.77l72.15,22.29a5.17,5.17,0,0,0,5.7-1.89l37.15-50.77a274.39,274.39,0,0,0,88.45-8.29l45.94,43a5.17,5.17,0,0,0,6,.8l66.77-35.26a5.18,5.18,0,0,0,2.7-5.36l-9.65-62.21a274.27,274.27,0,0,0,56.74-68.38l62.87-2a5.17,5.17,0,0,0,4.78-3.64l22.28-72.15a5.17,5.17,0,0,0-1.89-5.7l-50.77-37.15a274.11,274.11,0,0,0-8.29-88.45l43-45.94a5.17,5.17,0,0,0,.8-6L1653.86,800a5.18,5.18,0,0,0-5.36-2.7L1586.29,807a274,274,0,0,0-68.37-56.74l-2.05-62.87a5.17,5.17,0,0,0-3.64-4.78l-72.15-22.28a5.18,5.18,0,0,0-5.7,1.89l-37.14,50.77a274.17,274.17,0,0,0-88.46,8.29l-45.93-43a5.18,5.18,0,0,0-6-.8l-66.77,35.26a5.16,5.16,0,0,0-2.69,5.36l9.64,62.21a274,274,0,0,0-56.73,68.37l-62.88,2a5.15,5.15,0,0,0-4.77,3.64l-22.29,72.14a5.19,5.19,0,0,0,1.89,5.71l50.77,37.14a274.45,274.45,0,0,0,8.29,88.46l-43,45.93a5.18,5.18,0,0,0-.8,6Z" transform="translate(-456.25 -462.53)"/><path class="cls-51" d="M1427.35,1042.54l0,0A73.19,73.19,0,1,1,1451.42,992,72.69,72.69,0,0,1,1427.3,1042.59ZM1337.52,943a60.9,60.9,0,0,0,81.55,90.47l0,0a60.9,60.9,0,0,0-81.54-90.47Z" transform="translate(-456.25 -462.53)"/><path class="cls-51" d="M1506.05,1126.94a188.56,188.56,0,0,1-218.82,24.54l6-10.72a177.53,177.53,0,0,0,34.45,14.78c72.87,22.5,149.47-4.85,192.82-62.6l.25-.32a4.08,4.08,0,0,1,.25-.33,175.94,175.94,0,0,0-89.41-273.17c-92.75-28.65-191.51,23.51-220.16,116.25a175.82,175.82,0,0,0-2.84,93.74l-11.95,2.92a188.17,188.17,0,0,1,3-100.29c30.66-99.22,136.32-155,235.55-124.38a187.29,187.29,0,0,1,84.08,53.47,190,190,0,0,1,26.9,38.55,188.27,188.27,0,0,1-40.18,227.56Z" transform="translate(-456.25 -462.53)"/><path class="cls-52" d="M1798.05,1107a3.15,3.15,0,0,1-1.23-1.62,3.19,3.19,0,0,1,2-4c4.07-1.38,8.24-2.64,12.39-3.74a3.19,3.19,0,1,1,1.64,6.16c-4,1.07-8,2.29-12,3.61A3.16,3.16,0,0,1,1798.05,1107Z" transform="translate(-456.25 -462.53)"/><path class="cls-53" d="M2052.28,1350.93a3.19,3.19,0,0,1-1.26-3.53,195.75,195.75,0,0,0,5.61-25.63,3.18,3.18,0,1,1,6.3.94,201.7,201.7,0,0,1-5.79,26.47,3.21,3.21,0,0,1-4.86,1.75Zm7.45-69.3a3.18,3.18,0,0,1-1.39-2.42,195.53,195.53,0,0,0-3.53-26,3.19,3.19,0,0,1,6.25-1.28,203.13,203.13,0,0,1,3.64,26.85,3.18,3.18,0,0,1-3,3.39A3.15,3.15,0,0,1,2059.73,1281.63Zm-206.68-184.81a3.19,3.19,0,0,1,1.66-5.82c4.8-.2,9.68-.23,14.53-.09,4.19.12,8.41.37,12.56.75a3.19,3.19,0,0,1-.58,6.35c-4-.37-8.11-.61-12.17-.73-4.69-.14-9.43-.11-14.07.08A3.19,3.19,0,0,1,1853.05,1096.82ZM2042.85,1214a3.16,3.16,0,0,1-1.11-1.33,196,196,0,0,0-12.34-23.15,3.19,3.19,0,0,1,5.42-3.37,203.54,203.54,0,0,1,12.73,23.91,3.19,3.19,0,0,1-4.7,3.94Zm-120.72-108a3.19,3.19,0,0,1,2.77-5.67,201.24,201.24,0,0,1,25.2,10,3.19,3.19,0,0,1-2.75,5.76,195.11,195.11,0,0,0-24.39-9.67A3.35,3.35,0,0,1,1922.13,1106.06Zm81.47,50.39a3.07,3.07,0,0,1-.48-.41,199,199,0,0,0-19.56-17.5,3.19,3.19,0,0,1-.54-4.48,3.27,3.27,0,0,1,4.47-.55,205.83,205.83,0,0,1,20.19,18.08,3.19,3.19,0,0,1-4.08,4.86Z" transform="translate(-456.25 -462.53)"/><path class="cls-54" d="M2029.11,1402a3.19,3.19,0,0,1-.89-4.34c2.25-3.52,4.4-7.14,6.4-10.78a3.18,3.18,0,0,1,4.33-1.25,3.1,3.1,0,0,1,1.26,4.32c-2.07,3.76-4.3,7.51-6.61,11.14a3.2,3.2,0,0,1-4.4,1Z" transform="translate(-456.25 -462.53)"/><path class="cls-55" d="M1896.4,1490.9a3.15,3.15,0,0,1-1.35-2.08,3.19,3.19,0,0,1,2.59-3.69c4.1-.72,8.23-1.59,12.26-2.58a3.19,3.19,0,1,1,1.52,6.19c-4.17,1-8.43,1.92-12.67,2.67A3.14,3.14,0,0,1,1896.4,1490.9Z" transform="translate(-456.25 -462.53)"/><path class="cls-56" d="M1763.26,1468a3.19,3.19,0,0,1,3.38-5.4,193.49,193.49,0,0,0,23.22,11.28,3.18,3.18,0,0,1-2.4,5.9,200.08,200.08,0,0,1-24-11.64A1.64,1.64,0,0,1,1763.26,1468Zm-34.51-24.92c-.12-.08-.23-.17-.34-.26a203.15,203.15,0,0,1-18.6-19.09,3.19,3.19,0,0,1,4.85-4.14,197.71,197.71,0,0,0,18,18.49,3.18,3.18,0,0,1-3.92,5Zm99.06,48a3.19,3.19,0,0,1,2.33-5.78,198.83,198.83,0,0,0,25.69,2.67,3.17,3.17,0,0,1,3.06,3.3,3.2,3.2,0,0,1-3.31,3.07,204.47,204.47,0,0,1-26.51-2.76A3.24,3.24,0,0,1,1827.81,1491.1Zm-141.41-102a3.25,3.25,0,0,1-1-1.12,201.88,201.88,0,0,1-11-24.26,3.19,3.19,0,1,1,6-2.25A194.55,194.55,0,0,0,1691,1385a3.18,3.18,0,0,1-4.6,4.14Zm-21.47-65.1a3.19,3.19,0,0,1-1.36-2.18,202.88,202.88,0,0,1-2.08-26.56,3.19,3.19,0,1,1,6.38-.08,195.54,195.54,0,0,0,2,25.73,3.19,3.19,0,0,1-5,3.09Zm1.94-68.54a3.17,3.17,0,0,1-1.33-3.27,199.78,199.78,0,0,1,7-25.71,3.18,3.18,0,0,1,6,2.08,194.58,194.58,0,0,0-6.81,24.9A3.18,3.18,0,0,1,1668,1256,3.25,3.25,0,0,1,1666.87,1255.5Z" transform="translate(-456.25 -462.53)"/><path class="cls-57" d="M1692.06,1191.57a3.19,3.19,0,0,1-.92-4.3c2.25-3.66,4.64-7.3,7.12-10.81a3.19,3.19,0,0,1,4.4-.79l0,0a3.2,3.2,0,0,1,.77,4.45c-2.4,3.39-4.72,6.92-6.9,10.47a3.18,3.18,0,0,1-4.38,1.05Z" transform="translate(-456.25 -462.53)"/><path class="cls-58" d="M1750.6,1189.79a2.37,2.37,0,0,0-.62,2.69l11.09,26.82a126.46,126.46,0,0,0-18,36.8l-27.94,7.76a2.38,2.38,0,0,0-1.74,2.15l-2.13,34.75a2.38,2.38,0,0,0,1.47,2.34l26.78,11.12a126.72,126.72,0,0,0,13.34,38.72l-14.28,25.26a2.39,2.39,0,0,0,.29,2.75l23.06,26.08a2.39,2.39,0,0,0,2.7.62l26.82-11.09a126.31,126.31,0,0,0,36.8,18l7.76,27.94a2.39,2.39,0,0,0,2.15,1.75l34.74,2.12a2.37,2.37,0,0,0,2.35-1.46l11.11-26.79a126.34,126.34,0,0,0,38.73-13.34l25.26,14.28a2.37,2.37,0,0,0,2.75-.29l26.07-23.06a2.37,2.37,0,0,0,.63-2.7l-11.09-26.81a126.81,126.81,0,0,0,18-36.8l27.94-7.76a2.39,2.39,0,0,0,1.74-2.15l2.13-34.75a2.38,2.38,0,0,0-1.46-2.35l-26.79-11.11a126.45,126.45,0,0,0-13.34-38.72l14.28-25.26a2.4,2.4,0,0,0-.29-2.76l-23.06-26.07a2.39,2.39,0,0,0-2.7-.62l-26.81,11.09a126.24,126.24,0,0,0-36.81-18l-7.76-28a2.37,2.37,0,0,0-2.15-1.74l-34.74-2.13a2.39,2.39,0,0,0-2.35,1.47l-11.11,26.79a126.19,126.19,0,0,0-38.72,13.34l-25.26-14.28a2.38,2.38,0,0,0-2.76.28Z" transform="translate(-456.25 -462.53)"/><path class="cls-51" d="M1844.79,1322.22l0,0a35.7,35.7,0,1,1,26.73,5.6A35.43,35.43,0,0,1,1844.76,1322.2Zm34.81-51.06a26.12,26.12,0,0,0-29.45,43.15h0a26.12,26.12,0,1,0,29.43-43.16Z" transform="translate(-456.25 -462.53)"/><path class="cls-51" d="M1815.55,1366.66a88.82,88.82,0,0,1-36.14-95.4c.17-.7.36-1.39.55-2.08l9.2,2.59a80.08,80.08,0,0,0-2.8,16.63h0a79.47,79.47,0,0,0,1,18.32v0s0,.06,0,.09A79.46,79.46,0,0,0,1834,1366a78.51,78.51,0,0,0,20,5.67l.67.09.56.08,1.41.17c1.28.14,2.58.25,3.88.33a78.71,78.71,0,0,0,57.33-19.73,79.67,79.67,0,0,0,13.07-14.82,79.24,79.24,0,0,0-102-114.86l-4.4-8.49a88.79,88.79,0,1,1-9,152.25Z" transform="translate(-456.25 -462.53)"/><path class="cls-3" d="M2309.1,820.32a3.11,3.11,0,0,1-1.49-2.51c-.19-4.12-.48-8.26-.84-12.29a3.11,3.11,0,0,1,6.2-.56c.38,4.12.67,8.34.86,12.56a3.1,3.1,0,0,1-3,3.25A3,3,0,0,1,2309.1,820.32Z" transform="translate(-456.25 -462.53)"/><path class="cls-3" d="M1855.78,1088.58c-6.2-3.79-12.33-7.85-18.21-12.08a3.11,3.11,0,1,1,3.63-5.06c6.77,4.86,13.86,9.48,21,13.77l0,0a3.11,3.11,0,0,1-3.22,5.33C1858,1089.91,1856.87,1089.25,1855.78,1088.58Zm40.14,20.53a3.11,3.11,0,0,1,2.83-5.52c7.7,3.22,15.64,6.16,23.6,8.73a3.11,3.11,0,1,1-1.91,5.92c-8.13-2.62-16.23-5.62-24.1-8.91A3.36,3.36,0,0,1,1895.92,1109.11Zm63.92,18.78a3.11,3.11,0,0,1,2.17-5.72c8.24,1.45,16.63,2.57,24.93,3.32a3.11,3.11,0,1,1-.56,6.2c-8.47-.76-17-1.9-25.45-3.39A3.12,3.12,0,0,1,1959.84,1127.89Zm66.47,4.19a3.12,3.12,0,0,1,1.47-5.77c8.33-.41,16.75-1.2,25-2.33a3.11,3.11,0,1,1,.84,6.17c-8.46,1.16-17.07,2-25.57,2.38A3.18,3.18,0,0,1,2026.31,1132.08ZM2092,1121.3a3.11,3.11,0,0,1,.78-5.65c8-2.27,16.07-4.91,23.9-7.85a3.11,3.11,0,1,1,2.19,5.83c-8,3-16.2,5.7-24.4,8A3.07,3.07,0,0,1,2092,1121.3Zm61.69-25.11a3.11,3.11,0,0,1,.14-5.39c7.35-4,14.61-8.36,21.57-13a3.11,3.11,0,0,1,3.43,5.2c-7.11,4.69-14.52,9.13-22,13.22A3.13,3.13,0,0,1,2153.71,1096.19Zm54.63-38.13a3.2,3.2,0,0,1-.72-.61,3.11,3.11,0,0,1,.28-4.39c6.28-5.52,12.4-11.37,18.18-17.4a3.11,3.11,0,0,1,4.49,4.31c-5.9,6.16-12.14,12.13-18.55,17.77A3.13,3.13,0,0,1,2208.34,1058.06Zm44.8-49.32-.2-.13a3.12,3.12,0,0,1-.7-4.35c4.31-6,8.45-12.2,12.3-18.49.51-.83,1-1.68,1.52-2.52a3.11,3.11,0,0,1,4.27-1.08l0,0a3.11,3.11,0,0,1,1,4.25l-1.56,2.58c-3.93,6.42-8.15,12.77-12.56,18.89A3.12,3.12,0,0,1,2253.14,1008.74Zm32.63-58.07a3.12,3.12,0,0,1-1.24-3.86c3.25-7.69,6.2-15.62,8.8-23.58a3.11,3.11,0,1,1,5.92,1.92c-2.65,8.14-5.67,16.24-9,24.07a3.11,3.11,0,0,1-4.08,1.66A4.11,4.11,0,0,1,2285.77,950.67Zm19-63.88a3.11,3.11,0,0,1-1.44-3.2c1.48-8.25,2.62-16.63,3.39-24.93a3.11,3.11,0,0,1,6.2.57c-.78,8.48-2,17-3.46,25.46a3.1,3.1,0,0,1-3.61,2.51A3.14,3.14,0,0,1,2304.73,886.79Z" transform="translate(-456.25 -462.53)"/><path class="cls-3" d="M1805.85,1050.17a2.55,2.55,0,0,1-.53-.4c-3.06-2.92-6.06-5.91-8.91-8.88a3.11,3.11,0,1,1,4.48-4.32c2.8,2.91,5.74,5.83,8.73,8.69a3.11,3.11,0,0,1-3.77,4.91Z" transform="translate(-456.25 -462.53)"/><path class="cls-3" d="M1713.4,835.79a3.13,3.13,0,0,1-1.49-2.65c0-4.15.06-8.38.22-12.58a3.11,3.11,0,0,1,6.22.24c-.15,4.11-.23,8.25-.21,12.32a3.1,3.1,0,0,1-3.1,3.12A3.06,3.06,0,0,1,1713.4,835.79Z" transform="translate(-456.25 -462.53)"/><path class="cls-3" d="M1717.94,782.93a3.11,3.11,0,0,1-1.44-3.2c1.45-8.24,3.28-16.54,5.43-24.68a3.11,3.11,0,1,1,6,1.59c-2.1,8-3.89,16.1-5.32,24.18a3.11,3.11,0,0,1-3.61,2.52A3.07,3.07,0,0,1,1717.94,782.93ZM1736.29,720a3.11,3.11,0,0,1-1.25-3.84c3.22-7.77,6.8-15.48,10.65-22.93a3.11,3.11,0,0,1,5.53,2.86c-3.77,7.29-7.27,14.84-10.43,22.45a3.11,3.11,0,0,1-4.07,1.69A3.55,3.55,0,0,1,1736.29,720Zm31.65-57.41-.18-.12a3.12,3.12,0,0,1-.75-4.34c4.84-6.85,10-13.58,15.44-20a3.12,3.12,0,1,1,4.77,4c-5.3,6.3-10.38,12.89-15.12,19.6A3.11,3.11,0,0,1,1767.94,662.58Zm43.49-49.05a3.08,3.08,0,0,1-.69-.57,3.12,3.12,0,0,1,.23-4.4c6.22-5.62,12.76-11,19.44-16.14a3.11,3.11,0,1,1,3.78,5c-6.54,5-13,10.31-19,15.81A3.11,3.11,0,0,1,1811.43,613.53Zm53.16-38.35a3,3,0,0,1-1.08-1.12,3.1,3.1,0,0,1,1.17-4.24c7.3-4.14,14.87-8,22.49-11.53a3.12,3.12,0,0,1,2.61,5.66c-7.47,3.44-14.88,7.23-22,11.29A3.13,3.13,0,0,1,1864.59,575.18Zm60.22-25.87a3.11,3.11,0,0,1,.72-5.63c8-2.45,16.26-4.58,24.45-6.35a3.11,3.11,0,1,1,1.31,6.09c-8,1.73-16.08,3.82-24,6.22A3.09,3.09,0,0,1,1924.81,549.31Zm64.39-12.07a3.11,3.11,0,0,1,1.39-5.76c8.38-.63,16.88-.9,25.27-.82a3.12,3.12,0,0,1-.07,6.23c-8.21-.08-16.53.19-24.73.8A3.11,3.11,0,0,1,1989.2,537.24Zm65.49,2.38a3.11,3.11,0,0,1,2.08-5.73c8.28,1.22,16.63,2.82,24.82,4.74a3.11,3.11,0,0,1-1.42,6.06c-8-1.88-16.2-3.44-24.31-4.64A3.11,3.11,0,0,1,2054.69,539.62Zm63.41,16.6a3.11,3.11,0,0,1,2.74-5.56c7.87,3,15.68,6.38,23.21,10a3.11,3.11,0,1,1-2.7,5.61c-7.38-3.56-15-6.86-22.73-9.8A3.16,3.16,0,0,1,2118.1,556.22ZM2196.62,601a1.66,1.66,0,0,1-.32-.22c-6.44-5.11-13.18-10-20-14.55a3.12,3.12,0,0,1-.87-4.32,3.09,3.09,0,0,1,4.32-.87c7,4.64,13.87,9.64,20.44,14.87a3.11,3.11,0,0,1-3.55,5.09Z" transform="translate(-456.25 -462.53)"/><path class="cls-3" d="M2235.15,637.64a3.15,3.15,0,0,1-.71-.61c-2.72-3.09-5.52-6.15-8.32-9.08a3.11,3.11,0,0,1,4.5-4.3c2.86,3,5.72,6.11,8.5,9.27a3.12,3.12,0,0,1-4,4.72Z" transform="translate(-456.25 -462.53)"/><path class="cls-31" d="M2202.58,703.48a3.57,3.57,0,0,0-3.71-1.86l-43,6.77a189.59,189.59,0,0,0-47.37-39.11L2107,625.81a3.58,3.58,0,0,0-2.53-3.29l-49.91-15.29a3.57,3.57,0,0,0-3.94,1.31L2025,643.7a189.6,189.6,0,0,0-61.14,5.88l-31.83-29.68a3.59,3.59,0,0,0-4.12-.55l-46.11,24.49a3.58,3.58,0,0,0-1.85,3.71l6.77,43a189.4,189.4,0,0,0-39.12,47.36l-43.46,1.52a3.57,3.57,0,0,0-3.3,2.52l-15.29,49.92a3.58,3.58,0,0,0,1.32,3.94l35.16,25.6a189.6,189.6,0,0,0,5.88,61.14l-29.69,31.83a3.56,3.56,0,0,0-.54,4.11l24.48,46.11a3.57,3.57,0,0,0,3.72,1.85l43-6.76a189.93,189.93,0,0,0,47.36,39.11l1.52,43.47a3.58,3.58,0,0,0,2.53,3.29l49.91,15.29a3.58,3.58,0,0,0,3.94-1.31l25.6-35.17a189.59,189.59,0,0,0,61.14-5.87l31.83,29.68a3.58,3.58,0,0,0,4.12.54l46.1-24.48a3.58,3.58,0,0,0,1.86-3.72l-6.77-43a189.32,189.32,0,0,0,39.11-47.36l43.47-1.52a3.57,3.57,0,0,0,3.3-2.52l15.29-49.92a3.6,3.6,0,0,0-1.32-3.94l-35.16-25.6a189.6,189.6,0,0,0-5.88-61.14l29.69-31.83a3.58,3.58,0,0,0,.54-4.11Z" transform="translate(-456.25 -462.53)"/><path class="cls-3" d="M1985.8,877.62a51.11,51.11,0,1,1,24,7.38A51,51,0,0,1,1985.8,877.62Zm48.3-79.19a41.53,41.53,0,0,0-19.64-6h0a41.69,41.69,0,1,0,28.83,13.66A42,42,0,0,0,2034.1,798.43Zm-19.4-10.69,0,0Z" transform="translate(-456.25 -462.53)"/><path class="cls-3" d="M1943.29,946.11c-49.64-30.37-74.56-91.59-56.75-149.73A130.2,130.2,0,0,1,1900,766.49c30.36-49.64,91.59-74.57,149.74-56.76,1,.32,2.09.65,3.12,1a131.13,131.13,0,0,1,20.22,8.68c.75.4,1.5.8,2.24,1.22l-4.55,8.16A122.2,122.2,0,0,0,2047,718.66l-.23-.07a121.23,121.23,0,1,0,82.5,87l9.06-2.25a130.69,130.69,0,0,1-195,142.78Z" transform="translate(-456.25 -462.53)"/><path class="cls-59" d="M1268.07,1441.61l-29.19,28.78c-41.44-4-73.38-16.87-97.91-33.23,14.76-36.71,29.76-58.48,41.53-71.24C1221.09,1420.18,1268.07,1441.61,1268.07,1441.61Z" transform="translate(-456.25 -462.53)"/><path class="cls-60" d="M1064.87,1333.88l68.9-107.72c4.52,60.76,25,106.44,48.73,139.76-11.77,12.76-26.77,34.53-41.53,71.24C1079.76,1396.35,1064.87,1333.88,1064.87,1333.88Z" transform="translate(-456.25 -462.53)"/><path class="cls-61" d="M991.6,2185.25c34.35,1.59,67.6.59,89.8-.55-20.22-14.39-66.78-45.69-105.75-58.15L948.9,2125s-9.06,13.79-12.29,45.33C941,2175.81,954,2183.52,991.6,2185.25Z" transform="translate(-456.25 -462.53)"/><path class="cls-62" d="M1081.67,2184.9c-.08-.07-.18-.13-.27-.2-22.2,1.14-55.45,2.14-89.8.55-37.6-1.73-50.56-9.44-55-15-.15,1.45-.31,2.9-.43,4.43a12.52,12.52,0,0,0,11.51,13.52c28.13,2.13,97.88,6.94,131.52,5.18A4.69,4.69,0,0,0,1081.67,2184.9Z" transform="translate(-456.25 -462.53)"/><path class="cls-63" d="M745.92,2176.06c-2.52-16.12-6.55-39.44-9.67-45.4-4.89-9.35-21.62,0-21.62,0s-11.75,5.48-17.16,14.62c-3.45,5.82-13,22.38-19.44,33.63a7.47,7.47,0,0,0-1,4l67,2.34A13.39,13.39,0,0,0,745.92,2176.06Z" transform="translate(-456.25 -462.53)"/><path class="cls-64" d="M677,2182.91a7.65,7.65,0,0,0,7.43,7.42l47.75,1.31a13.46,13.46,0,0,0,11.84-6.39Z" transform="translate(-456.25 -462.53)"/><path class="cls-65" d="M751,2077.07c-.58,1.93-9.24,43.91-13,62.34a10.53,10.53,0,0,1-10.83,8.41c-2.83-.14-6.13-.4-9.59-.85a12.69,12.69,0,0,1-11.05-12.1c-.62-16.14-.92-47.13,5-59.14C719.72,2059.16,751,2077.07,751,2077.07Z" transform="translate(-456.25 -462.53)"/><path class="cls-66" d="M943.64,2089.09c3.72-.12-1.48,19.17,4.14,38.14,1.27,4.28,4.47,7.64,8.93,7.69,2.89,0,6.32,0,9.79-.29a10.78,10.78,0,0,0,9.93-9.71l4.57-49.19Z" transform="translate(-456.25 -462.53)"/><path class="cls-67" d="M1047.54,1566.17c-1.66,8.07-60.18,349.38-63.73,526a6,6,0,0,1-5.17,5.85c-7.43,1-21.89,2.37-35.92-.23a4.24,4.24,0,0,1-3.49-3.89c-2.05-32.91-18.49-311.19,1.65-442.18,0,0-166.38,350.17-191.6,446.73a5.09,5.09,0,0,1-5.2,3.8c-7.12-.38-21.94-1.66-33.71-6a8.8,8.8,0,0,1-5.55-10.35c14.09-57.79,112.84-455.91,179.89-543.62Z" transform="translate(-456.25 -462.53)"/><path class="cls-68" d="M940.88,1653.9a2.22,2.22,0,0,1-1.53-.62,2.18,2.18,0,0,1,0-3.09l22.28-22.78a2.18,2.18,0,1,1,3.12,3l-22.28,22.78A2.17,2.17,0,0,1,940.88,1653.9Z" transform="translate(-456.25 -462.53)"/><path class="cls-69" d="M1142.65,1138.85c-42.74-11.2-121.57-28.73-184.33-25a28.41,28.41,0,0,0-26.78,26.67c-9.48,167.14-22.44,315.46-46.83,401.76,54.83,21.7,109.2,31.76,162.83,23.88q60.27-129.09,105.32-298.25s17.61-90,.51-120C1150.7,1143.26,1147.2,1140,1142.65,1138.85Z" transform="translate(-456.25 -462.53)"/><path class="cls-70" d="M1039.85,1021.77s-10.79,64.38-14,94.16a11.67,11.67,0,0,0,6.34,11.64c11.79,6.07,37,15.85,64.41,6.87a10.86,10.86,0,0,0,7.37-10.6l-1.88-85.95Z" transform="translate(-456.25 -462.53)"/><path class="cls-71" d="M1110.23,950.43s20.83,47.83,22.22,72.94,6.81,41.4-22.22,46.45-53.48-9.4-66.73-34.41c0,0-20.75-38.54-16.1-54.32S1110.23,950.43,1110.23,950.43Z" transform="translate(-456.25 -462.53)"/><path class="cls-72" d="M1053.42,1017.43h3.67s-15.12-31-1.83-36.47,65.91-16.18,77.26-34.85c11-18,1.19-41.26-13.42-47.76a1.94,1.94,0,0,0-2.48.92l-1.21,2.28a2,2,0,0,1-3.64-.37h0a2,2,0,0,0-3.54-.54c-3.47,5.58-12.88,14.67-38.13,19.32-35.81,6.61-59.49,21.11-60.07,45.86a2,2,0,0,1-3.06,1.62c-2.64-1.61-6.87-2.37-12.53,2.39-9.83,8.27-5.81,29.72,15.75,47.37a2,2,0,0,1-.09,3.16c-3.91,2.54-9.73,8.59,5.36,16.66,15.45,8.26,24.59,7.36,28,6.48a2,2,0,0,0,1.5-2l-1.36-21.94a2,2,0,0,1,2-2.09Z" transform="translate(-456.25 -462.53)"/><path class="cls-73" d="M1054.32,1022s-7.94-30.56-21.64-22,7.11,34.24,18.12,35.38Z" transform="translate(-456.25 -462.53)"/><path class="cls-74" d="M609.82,1519.13l-28.12,7.11c-48.26,12.2-80.71,48.46-72.48,81l9.78,38.68c8.22,32.54,54,49,102.26,36.83l28.12-7.11q2.8-.71,5.56-1.53l824.6-246.73-21.3-84.27-842.8,174.73Q612.62,1518.43,609.82,1519.13Zm12.11,38.61c36.33-9.18,70.21.87,75.67,22.46s-19.57,46.53-55.91,55.72-70.2-.88-75.66-22.46S585.6,1566.92,621.93,1557.74Z" transform="translate(-456.25 -462.53)"/><path class="cls-75" d="M1732.41,1228.6l-163.17,41.24a38.62,38.62,0,0,0-26,22.1l-24.42,56.37a38.64,38.64,0,0,0,11.56,45.7l48.26,38a38.6,38.6,0,0,0,33.36,7.1l163.17-41.24c24.62-6.22,45.53,19.46,33.91,42-27.8,54-78.81,96.71-143.73,113.12-117.35,29.66-221.2-41.44-249.73-154.31s29.06-224.77,146.41-254.43c64.92-16.41,130.1-3.07,180.22,31.23C1763.22,1189.84,1757,1222.38,1732.41,1228.6Z" transform="translate(-456.25 -462.53)"/><path class="cls-76" d="M1736.3,1244l-163.18,41.24a38.61,38.61,0,0,0-26,22.1l-24.42,56.37a38.63,38.63,0,0,0,11.55,45.7l48.27,38a38.62,38.62,0,0,0,33.36,7.1l163.17-41.25c24.61-6.22,45.52,19.47,33.9,42-27.8,54-78.8,96.71-143.73,113.12-117.34,29.66-221.19-41.44-249.72-154.31s29.06-224.77,146.41-254.43c64.92-16.41,130.1-3.07,180.21,31.23C1767.1,1205.22,1760.91,1237.76,1736.3,1244Z" transform="translate(-456.25 -462.53)"/><path class="cls-77" d="M612.92,1531.4l-28.12,7.11c-48.25,12.2-80.71,48.46-72.48,81l9.78,38.68c8.22,32.54,54,49,102.26,36.83l28.12-7.11q2.81-.71,5.56-1.53l824.6-246.73-21.3-84.28-842.8,174.74Q615.72,1530.7,612.92,1531.4ZM625,1570c36.34-9.19,70.21.87,75.67,22.46s-19.57,46.53-55.91,55.71-70.2-.87-75.66-22.46S588.7,1579.19,625,1570Z" transform="translate(-456.25 -462.53)"/><path class="cls-78" d="M820.94,1361.45c-21.13,59.3-9.23,122.87-9.23,122.87l-27.86,7.43s-36-42.81-27.75-137.79C781.81,1350,805.9,1356.06,820.94,1361.45Z" transform="translate(-456.25 -462.53)"/><path class="cls-79" d="M756.1,1354c.92-10.68,2.38-22,4.54-34,18.82-104.76,153.13-185.34,184.73-203a4.32,4.32,0,0,1,6.41,3.94l-4.49,142.41c-74.8,10-110.2,52.85-126.35,98.14C805.9,1356.06,781.81,1350,756.1,1354Z" transform="translate(-456.25 -462.53)"/><path class="cls-80" d="M1326.84,1493.86a18.08,18.08,0,0,0,11.67-10.11c4.27-9.58,9.09-24.93-1.19-29.61-15.33-7-43.19,21.59-43.19,21.59l-13.61,22.06-12.45,6.06C1279.48,1507,1301.47,1501.76,1326.84,1493.86Z" transform="translate(-456.25 -462.53)"/><path class="cls-81" d="M809.85,1470.39H844.3s-27.95,16.76-28.87,34.38,11.09,54.13,16.71,64.07c6.15,10.86-78-16.19-48.29-98.45Z" transform="translate(-456.25 -462.53)"/><path class="cls-82" d="M2510.94,3158.54v29.53c0,7.55-3.89,13.8-9,14.48l-460.59,41.74a33.24,33.24,0,0,1-10.25-.2c-.88-.17-1.77-.36-2.66-.58L1707.5,3183c-3.41-.88-5.92-5.35-5.92-10.53V3141.3l340.5-42.21,43.83-20.74,43.58,6.28,25.74-4.93,58.82,17.11Z" transform="translate(-456.25 -462.53)"/><path class="cls-83" d="M2510.94,3158.54v29.53c0,7.55-3.89,13.8-9,14.48l-460.57,41.74a33.07,33.07,0,0,1-10.23-.21v-159l54.81-6.7,43.57,6.28,25.73-4.94,58.82,17.12Z" transform="translate(-456.25 -462.53)"/><path class="cls-84" d="M2155.23,3079.7l-453.65,60.21,327.21,61.63a31.68,31.68,0,0,0,12.17.72l470-43.72Z" transform="translate(-456.25 -462.53)"/><path class="cls-85" d="M2321.52,3134.09c0,21.6-68,38.4-161.84,42.76-23.7,1.09-49,1.39-75.3.78-129.18-3-233-27-233-53.61a7.49,7.49,0,0,1,.18-1.91h-.18l.54-1.28a7.41,7.41,0,0,1,.48-1.24l29.79-77.89,36-94L1968.58,2816l38.56-100.82,48-125.36c6-15.7,17.12-25.46,29.14-25.46a21.64,21.64,0,0,1,4.82.53c10.14,2.21,19.2,11.35,24.41,25l48.37,126.25,38.63,102.15,51,134.35v0l36.6,96.53v0l.59.06,30.48,78.44C2320.43,3129.8,2321.52,3131.94,2321.52,3134.09Z" transform="translate(-456.25 -462.53)"/><path class="cls-43" d="M2288.64,3049.26c-29.42,9.82-76.43,16.9-132.72,19.53-22.68,1.07-46.68,1.41-71.68.94-86.8-1.65-162-12.82-202.1-28l36-94c42.14,9.48,100.87,15.87,166.15,16.85,21.1.32,41.67,0,61.26-.74,41.22-1.63,77.56-5.59,106.2-11.21l36.28,96.53v0Z" transform="translate(-456.25 -462.53)"/><path class="cls-43" d="M2200.92,2818.26c-22.45,2.43-47.13,4.07-73.31,4.82-14,.42-28.47.55-43.23.41a1002.26,1002.26,0,0,1-115.8-7.47l38.56-100.82c24.13,1.91,50.12,3,77.24,3.15q14.35.09,28.28-.19c17-.32,33.47-1,49.19-2Z" transform="translate(-456.25 -462.53)"/></g></svg>