<svg xmlns="http://www.w3.org/2000/svg" xmlns:xlink="http://www.w3.org/1999/xlink" width="90" zoomAndPan="magnify" viewBox="0 0 67.5 67.499996" height="90" preserveAspectRatio="xMidYMid meet" version="1.2"><defs><clipPath id="26a8c0a318"><path d="M 0 0 L 67.003906 0 L 67.003906 67.003906 L 0 67.003906 Z M 0 0 "/></clipPath><clipPath id="73cbe54dc4"><path d="M 26 8 L 67.003906 8 L 67.003906 55 L 26 55 Z M 26 8 "/></clipPath></defs><g id="68ec716405"><g clip-rule="nonzero" clip-path="url(#26a8c0a318)"><path style=" stroke:none;fill-rule:nonzero;fill:#ffffff;fill-opacity:1;" d="M 0 0 L 67.003906 0 L 67.003906 67.003906 L 0 67.003906 Z M 0 0 "/><path style=" stroke:none;fill-rule:nonzero;fill:#ffffff;fill-opacity:1;" d="M 0 0 L 67.003906 0 L 67.003906 67.003906 L 0 67.003906 Z M 0 0 "/></g><g style="fill:#ffffff;fill-opacity:1;"><g transform="translate(-0.967414, 51.893794)"><path style="stroke:none" d="M 23.921875 2.832031 C 19.476562 2.832031 15.449219 1.859375 11.832031 -0.0820312 C 8.183594 -2.042969 5.316406 -4.765625 3.222656 -8.253906 C 1.132812 -11.738281 0.0859375 -15.664062 0.0859375 -20.03125 C 0.0859375 -24.394531 1.132812 -28.320312 3.222656 -31.804688 C 5.316406 -35.292969 8.183594 -38.015625 11.832031 -39.976562 C 15.449219 -41.917969 19.496094 -42.890625 23.976562 -42.890625 C 27.746094 -42.890625 31.171875 -42.222656 34.25 -40.882812 C 37.363281 -39.527344 39.984375 -37.574219 42.109375 -35.023438 L 43.414062 -33.457031 L 34.335938 -25.074219 L 32.886719 -26.75 C 30.605469 -29.386719 27.789062 -30.703125 24.4375 -30.703125 C 22.328125 -30.703125 20.464844 -30.25 18.84375 -29.34375 C 17.253906 -28.453125 16.011719 -27.214844 15.121094 -25.621094 C 14.214844 -24 13.761719 -22.136719 13.761719 -20.03125 C 13.761719 -17.921875 14.214844 -16.058594 15.121094 -14.4375 C 16.011719 -12.847656 17.253906 -11.605469 18.84375 -10.714844 C 20.464844 -9.808594 22.328125 -9.355469 24.4375 -9.355469 C 27.78125 -9.355469 30.597656 -10.691406 32.875 -13.355469 L 34.324219 -15.050781 L 43.402344 -6.671875 L 42.121094 -5.105469 C 39.992188 -2.511719 37.355469 -0.535156 34.214844 0.824219 C 31.121094 2.164062 27.6875 2.832031 23.921875 2.832031 Z M 23.921875 -1.460938 C 27.097656 -1.460938 29.960938 -2.011719 32.511719 -3.113281 C 35.015625 -4.199219 37.113281 -5.769531 38.800781 -7.828125 L 40.460938 -6.464844 L 39.003906 -4.890625 L 33.050781 -10.382812 L 34.507812 -11.960938 L 36.136719 -10.566406 C 33 -6.898438 29.101562 -5.0625 24.4375 -5.0625 C 21.582031 -5.0625 19.023438 -5.699219 16.75 -6.96875 C 14.453125 -8.253906 12.660156 -10.042969 11.375 -12.34375 C 10.105469 -14.613281 9.472656 -17.175781 9.472656 -20.03125 C 9.472656 -22.882812 10.105469 -25.445312 11.375 -27.714844 C 12.660156 -30.015625 14.453125 -31.804688 16.75 -33.089844 C 19.023438 -34.359375 21.582031 -34.996094 24.4375 -34.996094 C 29.09375 -34.996094 32.992188 -33.183594 36.128906 -29.558594 L 34.507812 -28.15625 L 33.050781 -29.734375 L 39.003906 -35.226562 L 40.460938 -33.648438 L 38.8125 -32.273438 C 37.121094 -34.304688 35.027344 -35.859375 32.535156 -36.945312 C 30.003906 -38.046875 27.152344 -38.597656 23.976562 -38.597656 C 20.21875 -38.597656 16.847656 -37.796875 13.863281 -36.195312 C 10.910156 -34.605469 8.589844 -32.40625 6.90625 -29.597656 C 5.21875 -26.789062 4.378906 -23.601562 4.378906 -20.03125 C 4.378906 -16.457031 5.21875 -13.269531 6.90625 -10.460938 C 8.589844 -7.652344 10.910156 -5.453125 13.863281 -3.863281 C 16.847656 -2.261719 20.199219 -1.460938 23.921875 -1.460938 Z M 23.921875 -1.460938 "/></g></g><g style="fill:#1c46d4;fill-opacity:1;"><g transform="translate(-0.967414, 51.893794)"><path style="stroke:none" d="M 23.921875 0.6875 C 19.835938 0.6875 16.144531 -0.195312 12.84375 -1.96875 C 9.539062 -3.75 6.945312 -6.210938 5.0625 -9.359375 C 3.175781 -12.503906 2.234375 -16.0625 2.234375 -20.03125 C 2.234375 -24 3.175781 -27.554688 5.0625 -30.703125 C 6.945312 -33.847656 9.539062 -36.304688 12.84375 -38.078125 C 16.144531 -39.859375 19.859375 -40.75 23.984375 -40.75 C 27.453125 -40.75 30.585938 -40.140625 33.390625 -38.921875 C 36.203125 -37.703125 38.5625 -35.945312 40.46875 -33.65625 L 34.515625 -28.15625 C 31.804688 -31.289062 28.445312 -32.859375 24.4375 -32.859375 C 21.957031 -32.859375 19.742188 -32.3125 17.796875 -31.21875 C 15.847656 -30.132812 14.332031 -28.617188 13.25 -26.671875 C 12.164062 -24.722656 11.625 -22.507812 11.625 -20.03125 C 11.625 -17.550781 12.164062 -15.335938 13.25 -13.390625 C 14.332031 -11.441406 15.847656 -9.925781 17.796875 -8.84375 C 19.742188 -7.757812 21.957031 -7.21875 24.4375 -7.21875 C 28.445312 -7.21875 31.804688 -8.800781 34.515625 -11.96875 L 40.46875 -6.46875 C 38.5625 -4.132812 36.191406 -2.359375 33.359375 -1.140625 C 30.535156 0.078125 27.390625 0.6875 23.921875 0.6875 Z M 23.921875 0.6875 "/></g></g><g clip-rule="nonzero" clip-path="url(#73cbe54dc4)"><g style="fill:#ffffff;fill-opacity:1;"><g transform="translate(26.013314, 51.893794)"><path style="stroke:none" d="M 23.921875 2.832031 C 19.476562 2.832031 15.449219 1.859375 11.832031 -0.0820312 C 8.183594 -2.042969 5.316406 -4.765625 3.222656 -8.253906 C 1.132812 -11.738281 0.0859375 -15.664062 0.0859375 -20.03125 C 0.0859375 -24.394531 1.132812 -28.320312 3.222656 -31.804688 C 5.316406 -35.292969 8.183594 -38.015625 11.832031 -39.976562 C 15.449219 -41.917969 19.496094 -42.890625 23.976562 -42.890625 C 27.746094 -42.890625 31.171875 -42.222656 34.25 -40.882812 C 37.363281 -39.527344 39.984375 -37.574219 42.109375 -35.023438 L 43.414062 -33.457031 L 34.335938 -25.074219 L 32.886719 -26.75 C 30.605469 -29.386719 27.789062 -30.703125 24.4375 -30.703125 C 22.328125 -30.703125 20.464844 -30.25 18.84375 -29.34375 C 17.253906 -28.453125 16.011719 -27.214844 15.121094 -25.621094 C 14.214844 -24 13.761719 -22.136719 13.761719 -20.03125 C 13.761719 -17.921875 14.214844 -16.058594 15.121094 -14.4375 C 16.011719 -12.847656 17.253906 -11.605469 18.84375 -10.714844 C 20.464844 -9.808594 22.328125 -9.355469 24.4375 -9.355469 C 27.78125 -9.355469 30.597656 -10.691406 32.875 -13.355469 L 34.324219 -15.050781 L 43.402344 -6.671875 L 42.121094 -5.105469 C 39.992188 -2.511719 37.355469 -0.535156 34.214844 0.824219 C 31.121094 2.164062 27.6875 2.832031 23.921875 2.832031 Z M 23.921875 -1.460938 C 27.097656 -1.460938 29.960938 -2.011719 32.511719 -3.113281 C 35.015625 -4.199219 37.113281 -5.769531 38.800781 -7.828125 L 40.460938 -6.464844 L 39.003906 -4.890625 L 33.050781 -10.382812 L 34.507812 -11.960938 L 36.136719 -10.566406 C 33 -6.898438 29.101562 -5.0625 24.4375 -5.0625 C 21.582031 -5.0625 19.023438 -5.699219 16.75 -6.96875 C 14.453125 -8.253906 12.660156 -10.042969 11.375 -12.34375 C 10.105469 -14.613281 9.472656 -17.175781 9.472656 -20.03125 C 9.472656 -22.882812 10.105469 -25.445312 11.375 -27.714844 C 12.660156 -30.015625 14.453125 -31.804688 16.75 -33.089844 C 19.023438 -34.359375 21.582031 -34.996094 24.4375 -34.996094 C 29.09375 -34.996094 32.992188 -33.183594 36.128906 -29.558594 L 34.507812 -28.15625 L 33.050781 -29.734375 L 39.003906 -35.226562 L 40.460938 -33.648438 L 38.8125 -32.273438 C 37.121094 -34.304688 35.027344 -35.859375 32.535156 -36.945312 C 30.003906 -38.046875 27.152344 -38.597656 23.976562 -38.597656 C 20.21875 -38.597656 16.847656 -37.796875 13.863281 -36.195312 C 10.910156 -34.605469 8.589844 -32.40625 6.90625 -29.597656 C 5.21875 -26.789062 4.378906 -23.601562 4.378906 -20.03125 C 4.378906 -16.457031 5.21875 -13.269531 6.90625 -10.460938 C 8.589844 -7.652344 10.910156 -5.453125 13.863281 -3.863281 C 16.847656 -2.261719 20.199219 -1.460938 23.921875 -1.460938 Z M 23.921875 -1.460938 "/></g></g></g><g style="fill:#1176f7;fill-opacity:1;"><g transform="translate(26.013314, 51.893794)"><path style="stroke:none" d="M 23.921875 0.6875 C 19.835938 0.6875 16.144531 -0.195312 12.84375 -1.96875 C 9.539062 -3.75 6.945312 -6.210938 5.0625 -9.359375 C 3.175781 -12.503906 2.234375 -16.0625 2.234375 -20.03125 C 2.234375 -24 3.175781 -27.554688 5.0625 -30.703125 C 6.945312 -33.847656 9.539062 -36.304688 12.84375 -38.078125 C 16.144531 -39.859375 19.859375 -40.75 23.984375 -40.75 C 27.453125 -40.75 30.585938 -40.140625 33.390625 -38.921875 C 36.203125 -37.703125 38.5625 -35.945312 40.46875 -33.65625 L 34.515625 -28.15625 C 31.804688 -31.289062 28.445312 -32.859375 24.4375 -32.859375 C 21.957031 -32.859375 19.742188 -32.3125 17.796875 -31.21875 C 15.847656 -30.132812 14.332031 -28.617188 13.25 -26.671875 C 12.164062 -24.722656 11.625 -22.507812 11.625 -20.03125 C 11.625 -17.550781 12.164062 -15.335938 13.25 -13.390625 C 14.332031 -11.441406 15.847656 -9.925781 17.796875 -8.84375 C 19.742188 -7.757812 21.957031 -7.21875 24.4375 -7.21875 C 28.445312 -7.21875 31.804688 -8.800781 34.515625 -11.96875 L 40.46875 -6.46875 C 38.5625 -4.132812 36.191406 -2.359375 33.359375 -1.140625 C 30.535156 0.078125 27.390625 0.6875 23.921875 0.6875 Z M 23.921875 0.6875 "/></g></g></g></svg>