<svg xmlns="http://www.w3.org/2000/svg" viewBox="0 0 208.67 210"><defs><style>.cls-1{isolation:isolate;}.cls-2{fill:#041a28;}.cls-3{fill:#468fc1;}.cls-4{fill:#b4d2ed;}.cls-5{mix-blend-mode:screen;}.cls-6{fill:#f5be97;}.cls-7{fill:#f2a334;}.cls-8{fill:#eca87b;}.cls-9{fill:#275699;}.cls-10{fill:#10214b;}.cls-11{fill:#4b2524;}.cls-12{fill:#fff;}.cls-13{fill:#fe7a20;}.cls-14{fill:#c1583b;}.cls-15{fill:#b55039;}.cls-16{fill:#86361d;}.cls-17{fill:#d8424d;}.cls-18{fill:#f09c77;}.cls-19{fill:#e59173;}.cls-20{fill:#d7dae9;}.cls-21{fill:#e9731b;}</style></defs><g class="cls-1"><g id="artwork"><rect class="cls-2" x="142.82" y="95.57" width="3.33" height="14.51" rx="1"/><rect class="cls-2" x="142.82" y="64.03" width="3.33" height="24.17" rx="1"/><rect class="cls-2" x="66.33" y="47.25" width="77.39" height="158.46" rx="3"/><rect class="cls-3" x="68.51" y="51.7" width="73.04" height="149.55" rx="3"/><rect class="cls-2" x="88.57" y="55.74" width="24.17" height="3.33" rx="1"/><circle class="cls-2" cx="119.54" cy="57.4" r="1.93"/><path class="cls-4" d="M160.11,151.07l-4.85-.65a18.41,18.41,0,0,0-1.93-6.52l3.71-2.84a1,1,0,0,0,.19-1.4L153.65,135a1,1,0,0,0-1.4-.19l-3.89,3a18.65,18.65,0,0,0-6-3.24l.62-4.64a1,1,0,0,0-.86-1.12l-5.85-.78a1,1,0,0,0-1.12.85l-.65,4.86a18.53,18.53,0,0,0-6.52,1.93l-2.84-3.72a1,1,0,0,0-1.4-.19l-4.69,3.58a1,1,0,0,0-.19,1.41l3,3.88a18.67,18.67,0,0,0-3.25,6l-4.64-.62a1,1,0,0,0-1.12.86l-.78,5.85a1,1,0,0,0,.86,1.12l4.85.65a18.66,18.66,0,0,0,1.92,6.53L116,163.77a1,1,0,0,0-.19,1.4l3.58,4.69a1,1,0,0,0,1.41.19l3.89-3a18.33,18.33,0,0,0,6,3.25L130,175a1,1,0,0,0,.86,1.12l5.85.79a1,1,0,0,0,1.12-.86l.65-4.85a18.52,18.52,0,0,0,6.53-1.93l2.83,3.71a1,1,0,0,0,1.4.19l4.69-3.58a1,1,0,0,0,.19-1.4l-3-3.89a18.7,18.7,0,0,0,3.26-6l4.62.62a1,1,0,0,0,1.13-.86l.78-5.85A1,1,0,0,0,160.11,151.07Zm-23.59,14a12.62,12.62,0,1,1,12.61-12.61A12.62,12.62,0,0,1,136.52,165Z" transform="translate(-31.5 -25.95)"/><g class="cls-5"><path class="cls-2" d="M173.05,209V224.2a3,3,0,0,1-3,3h-5.92L100,85.94V80.65a3,3,0,0,1,3-3h10.44Z" transform="translate(-31.5 -25.95)"/></g><g class="cls-5"><polygon class="cls-2" points="126.7 201.25 118.17 201.25 68.51 91.85 68.51 73.04 126.7 201.25"/></g><path class="cls-6" d="M124.8,62.54l-5.91-1.89-3.65,8.2-.09.21,0,.07h0a3.47,3.47,0,0,0-.21,1.17,3.08,3.08,0,0,0,3.14,3.28c1.69,0,2.93-3.09,2.93-3.09Z" transform="translate(-31.5 -25.95)"/><path class="cls-6" d="M148.72,64.59l3.16,6.62S140.29,77.26,139.53,78s-3,1-3.92,1.47-1.77.61-1.56,1.21,4.21-.45,4.21-.45-2.7,2.43-3.2,4c-.64,2-1,2.54-.25,3.53s2.52.88,3.78-.74,1.12-2.22,2.76-3.66,2.08-2.53,2-3.25c2.31-.86,12.11-3.93,13.75-5.19s1.08-3.43.46-5.32-3.14-7.33-3.14-7.33-.72-.2-3,.67S148.72,64.59,148.72,64.59Z" transform="translate(-31.5 -25.95)"/><path class="cls-7" d="M154.87,62.35l-6.29,2.91-2.2-5.15V73.19L126,73.12l0-9,0-4.64-1.45,4.81-6.72-2.34s4.76-9.92,6.61-11.19c.63-.43,1.17-.26,2.36-.33.68-.05,1.47-.08,2.35-.1,4.1-.11,10,0,14.4.27.67,0,1.31.08,1.91.12,2.3.18,3.29.11,4.05.85C150.49,52.46,154.87,62.35,154.87,62.35Z" transform="translate(-31.5 -25.95)"/><path class="cls-8" d="M133.22,45.06l-1.56,5.42a11,11,0,0,0,5.53,1.31c3.59,0,4.83-.91,4.83-.91l-1.29-5.82Z" transform="translate(-31.5 -25.95)"/><path class="cls-9" d="M146.38,63.57v9.62H126l.06-9.8c.75-1.08,1.54-3,1.62-6.66.07-3.33-.18-4.94-.67-6.24.69-.07,1.33-.07,2.21-.09l.61,9.83,12.79.17,1-9.73c.67,0,1.31.08,1.91.12a21,21,0,0,0-.62,5.09A19.43,19.43,0,0,0,146.38,63.57Z" transform="translate(-31.5 -25.95)"/><path class="cls-10" d="M139.65,68.68h-4.44a2.43,2.43,0,0,1-2.43-2.43h0a2.43,2.43,0,0,1,2.43-2.43h4.44a2.43,2.43,0,0,1,2.43,2.43h0A2.43,2.43,0,0,1,139.65,68.68Z" transform="translate(-31.5 -25.95)"/><path class="cls-6" d="M116.12,73c2.68,3,19.3-6.59,20.06-6.92,1.46.15,7.25-.28,7.42-1.32a.75.75,0,0,0-.37-.8s.84-.9.13-1.47a.68.68,0,0,0-.28-1.27.79.79,0,0,0-.05-1.47c-.71-.33-4.34.22-4.34.22s1.34-3.74.5-3.88-1.64,1.86-2.12,3.09-1,2.42-1,2.42-10.07,4.06-13.4,5.33a26,26,0,0,0-5.49,2.73C115.85,70.66,115.07,71.83,116.12,73Z" transform="translate(-31.5 -25.95)"/><path class="cls-11" d="M143.22,61.28h-2.36a.15.15,0,0,1-.15-.15.15.15,0,0,1,.15-.15h2.36a.15.15,0,0,1,.15.15A.15.15,0,0,1,143.22,61.28Z" transform="translate(-31.5 -25.95)"/><path class="cls-11" d="M140.72,62.74a.15.15,0,1,1,0-.3l2.64,0h0a.15.15,0,0,1,.15.15.15.15,0,0,1-.15.15l-2.64.05Z" transform="translate(-31.5 -25.95)"/><path class="cls-11" d="M140.63,64.24a.16.16,0,0,1-.15-.15.15.15,0,0,1,.14-.15l2.54-.13a.16.16,0,0,1,.16.15.15.15,0,0,1-.15.15l-2.53.13Z" transform="translate(-31.5 -25.95)"/><path class="cls-11" d="M137,52.89h-.11c-4.21,0-6.07-2.31-6.15-2.4a.16.16,0,0,1,0-.22.15.15,0,0,1,.21,0,7.84,7.84,0,0,0,5.91,2.29h.1c4,0,5.81-2.05,5.83-2.07a.15.15,0,0,1,.22.2C142.92,50.81,141.08,52.89,137,52.89Z" transform="translate(-31.5 -25.95)"/><path class="cls-8" d="M130.15,40.18s-2.66-2.53-3.43-.39a3.43,3.43,0,0,0,4.34,4.28C130.54,42,130.15,40.18,130.15,40.18Z" transform="translate(-31.5 -25.95)"/><path class="cls-8" d="M143.63,40.18s2.66-2.53,3.44-.39a3.43,3.43,0,0,1-4.34,4.28C143.24,42,143.63,40.18,143.63,40.18Z" transform="translate(-31.5 -25.95)"/><path class="cls-6" d="M144.81,40.56c0,4.69-3,8.49-7.72,8.49s-7.84-3.8-7.84-8.49,3.15-8.5,7.84-8.5S144.81,35.87,144.81,40.56Z" transform="translate(-31.5 -25.95)"/><path class="cls-12" d="M134.64,44.27a4.66,4.66,0,0,0,2.5.61,6.23,6.23,0,0,0,2.47-.61s.54,2.31-2.47,2.29S134.64,44.27,134.64,44.27Z" transform="translate(-31.5 -25.95)"/><path class="cls-7" d="M128.69,36.52c-.09-1-1.17-4.83,1.24-7.5,3.67-4.08,12.61-3.82,15.57.37,1.31,1.85,1.79,4.89.52,7C142.35,36.43,136.71,36.26,128.69,36.52Z" transform="translate(-31.5 -25.95)"/><path class="cls-11" d="M129,39.34a.15.15,0,0,1-.11,0l-1.38-1.52a.14.14,0,0,1,0-.2l0-.06a11.27,11.27,0,0,1,6.6-4.05c5-.81,9.3.26,12.49,3.09l.12.1a.15.15,0,0,1,0,.18l-.69,1.55a.14.14,0,0,1-.11.09.16.16,0,0,1-.13,0,11.55,11.55,0,0,0-16.77.85S129,39.33,129,39.34Zm-1.18-1.66L129,39a11.83,11.83,0,0,1,16.93-.89l.56-1.26,0,0c-3.13-2.77-7.36-3.81-12.25-3A10.94,10.94,0,0,0,127.81,37.68Z" transform="translate(-31.5 -25.95)"/><ellipse class="cls-11" cx="102.37" cy="14.44" rx="0.51" ry="1.05"/><path class="cls-11" d="M141.35,40.38c0,.58-.23,1-.51,1s-.5-.47-.5-1,.22-1,.5-1S141.35,39.81,141.35,40.38Z" transform="translate(-31.5 -25.95)"/><path class="cls-11" d="M137.55,43.13h0l-1.68,0a.14.14,0,0,1-.14-.15.14.14,0,0,1,.15-.15h0l1.52,0V39.57a.15.15,0,0,1,.14-.15h0a.15.15,0,0,1,.15.15V43a.16.16,0,0,1,0,.11A.12.12,0,0,1,137.55,43.13Z" transform="translate(-31.5 -25.95)"/><path class="cls-13" d="M145.83,40.16a1.8,1.8,0,0,1-1.47-.77c-.06-.09-2-2.66-7.07-2.94s-7.1,2.44-7.19,2.56a1.8,1.8,0,0,1-2.49.36,1.78,1.78,0,0,1-.39-2.47c.13-.18,3.26-4.39,10.26-4s9.7,4.31,9.82,4.48a1.78,1.78,0,0,1-1.47,2.79Z" transform="translate(-31.5 -25.95)"/><path class="cls-11" d="M137.52,33.05a.14.14,0,0,1-.15-.14l-.23-6.81a.15.15,0,0,1,.15-.15.15.15,0,0,1,.15.14l.22,6.81a.14.14,0,0,1-.14.15Z" transform="translate(-31.5 -25.95)"/><path class="cls-11" d="M141.24,33.72h0a.14.14,0,0,1-.14-.15c.12-4.13,2.5-5.87,2.6-5.94a.16.16,0,0,1,.21,0,.16.16,0,0,1,0,.21,7.26,7.26,0,0,0-2.48,5.69A.15.15,0,0,1,141.24,33.72Z" transform="translate(-31.5 -25.95)"/><path class="cls-11" d="M133.79,33.72a.15.15,0,0,1-.15-.15c-.11-4-2.21-5.68-2.23-5.7a.15.15,0,1,1,.19-.23c.09.07,2.23,1.8,2.34,5.93a.14.14,0,0,1-.14.15Z" transform="translate(-31.5 -25.95)"/><path class="cls-11" d="M148.26,64.74a.17.17,0,0,1-.14-.09.16.16,0,0,1,.08-.2l6.34-2.77a.14.14,0,0,1,.19.07.15.15,0,0,1-.07.2l-6.34,2.77Z" transform="translate(-31.5 -25.95)"/><path class="cls-11" d="M124.83,63.45h0l-6.59-2.07a.14.14,0,0,1-.09-.18.14.14,0,0,1,.18-.1l6.59,2.07a.15.15,0,0,1,.1.18A.15.15,0,0,1,124.83,63.45Z" transform="translate(-31.5 -25.95)"/><path class="cls-11" d="M134.8,87.6h0a.16.16,0,0,1-.12-.18A11.36,11.36,0,0,1,136,83.76a17.4,17.4,0,0,1,1.74-1.68.15.15,0,0,1,.19.23A17.52,17.52,0,0,0,136.2,84a11.79,11.79,0,0,0-1.26,3.53A.14.14,0,0,1,134.8,87.6Z" transform="translate(-31.5 -25.95)"/><path class="cls-11" d="M135.71,88.28h0a.16.16,0,0,1-.12-.18c0-.11.56-2.78,1.33-3.66a16.3,16.3,0,0,1,1.73-1.68.15.15,0,0,1,.21,0,.14.14,0,0,1,0,.21,17.48,17.48,0,0,0-1.7,1.64,11,11,0,0,0-1.25,3.53A.16.16,0,0,1,135.71,88.28Z" transform="translate(-31.5 -25.95)"/><path class="cls-11" d="M136.76,88.28h0a.14.14,0,0,1-.1-.18,11.85,11.85,0,0,1,1.56-3.37C139,83.85,140,83,140,83a.15.15,0,1,1,.19.22s-1,.87-1.77,1.73a11.88,11.88,0,0,0-1.49,3.24A.15.15,0,0,1,136.76,88.28Z" transform="translate(-31.5 -25.95)"/><path class="cls-11" d="M144.76,75.13a.15.15,0,0,1-.13-.07.15.15,0,0,1,.06-.2c.05,0,5.25-3.1,8.3-3.92a.14.14,0,0,1,.18.1.16.16,0,0,1-.1.19c-3,.81-8.18,3.85-8.23,3.88A.12.12,0,0,1,144.76,75.13Z" transform="translate(-31.5 -25.95)"/><path class="cls-11" d="M119.49,68.44a.15.15,0,0,1-.14-.09.17.17,0,0,1,.08-.2c.08,0,8.26-3.51,11.34-4.48a.15.15,0,0,1,.18.1.15.15,0,0,1-.09.19c-3.06,1-11.23,4.44-11.31,4.47Z" transform="translate(-31.5 -25.95)"/><path class="cls-9" d="M79.5,226.27l.66,8.6.08,1.08H95.9v-1.89s.14-2.36-4.73-3.21-4.66-4.58-4.66-4.58Z" transform="translate(-31.5 -25.95)"/><polygon class="cls-10" points="48.66 208.92 48.74 210 64.4 210 64.4 208.92 48.66 208.92"/><path class="cls-11" d="M87.18,228.67H85.29a.15.15,0,0,1-.15-.15.14.14,0,0,1,.15-.15h1.89a.15.15,0,0,1,.15.15A.15.15,0,0,1,87.18,228.67Z" transform="translate(-31.5 -25.95)"/><path class="cls-11" d="M88.88,230.23H86.23a.15.15,0,0,1-.15-.15.15.15,0,0,1,.15-.15h2.65a.15.15,0,0,1,.15.15A.15.15,0,0,1,88.88,230.23Z" transform="translate(-31.5 -25.95)"/><path class="cls-11" d="M90.1,231.8h0s-4.43-.11-5.53-4.07a.16.16,0,0,1,.11-.19.15.15,0,0,1,.18.11c1,3.74,5.21,3.85,5.25,3.85a.15.15,0,0,1,.14.16A.14.14,0,0,1,90.1,231.8Z" transform="translate(-31.5 -25.95)"/><path class="cls-11" d="M95.82,234.21a.15.15,0,0,1-.15-.13,3.2,3.2,0,0,0-3-2.7,3.47,3.47,0,0,0-3.72,1.71.16.16,0,0,1-.2.07.14.14,0,0,1-.07-.2,3.81,3.81,0,0,1,4-1.88A3.56,3.56,0,0,1,96,234a.15.15,0,0,1-.14.17Z" transform="translate(-31.5 -25.95)"/><path class="cls-14" d="M85.31,159.28l5.75-4.44,4.64,7.59c.13.31.31.65.48,1a5.69,5.69,0,0,1,.65,3.1,3.76,3.76,0,0,1-.12.55c-.8,2.21-2.34,2.84-4.51,2.19a3.83,3.83,0,0,1-1.71-1.17Z" transform="translate(-31.5 -25.95)"/><polygon class="cls-15" points="44.57 119.25 33.41 119.25 35.89 109.99 42.09 109.99 44.57 119.25"/><path class="cls-15" d="M64.31,129.68s-1.52-2.45-2.94-1.36.58,4.8,2.94,5.06A34.83,34.83,0,0,1,64.31,129.68Z" transform="translate(-31.5 -25.95)"/><path class="cls-15" d="M77.1,129.68s1.65-2.45,3.07-1.36-.71,4.8-3.07,5.06A34.83,34.83,0,0,0,77.1,129.68Z" transform="translate(-31.5 -25.95)"/><path class="cls-14" d="M54.48,159.28l-5-6L45.36,157c-.23.25-.51.51-.77.75a4.6,4.6,0,0,0-1.47,2.47,2.76,2.76,0,0,0-.07.55,3.76,3.76,0,0,0,4.05,3.85,4.25,4.25,0,0,0,2-.52Z" transform="translate(-31.5 -25.95)"/><path class="cls-9" d="M58.34,226.27l-.66,8.6L57.6,236H41.94v-1.89s-.14-2.36,4.73-3.21,4.66-4.58,4.66-4.58Z" transform="translate(-31.5 -25.95)"/><polygon class="cls-10" points="26.18 208.92 26.1 210 10.44 210 10.44 208.92 26.18 208.92"/><path class="cls-11" d="M52.55,228.67H50.66a.15.15,0,0,1-.15-.15.14.14,0,0,1,.15-.15h1.89a.15.15,0,0,1,.15.15A.15.15,0,0,1,52.55,228.67Z" transform="translate(-31.5 -25.95)"/><path class="cls-11" d="M51.6,230.23H49a.15.15,0,0,1-.15-.15.15.15,0,0,1,.15-.15H51.6a.15.15,0,0,1,.15.15A.14.14,0,0,1,51.6,230.23Z" transform="translate(-31.5 -25.95)"/><path class="cls-11" d="M47.73,231.8a.15.15,0,0,1-.15-.14.16.16,0,0,1,.15-.16s4.21-.11,5.24-3.85a.15.15,0,0,1,.18-.11.16.16,0,0,1,.11.19c-1.09,4-5.48,4.07-5.53,4.07Z" transform="translate(-31.5 -25.95)"/><path class="cls-11" d="M42,234.25h0a.15.15,0,0,1-.13-.17,3.53,3.53,0,0,1,3.26-3,3.85,3.85,0,0,1,4,1.88.16.16,0,0,1-.07.2.15.15,0,0,1-.2-.08,3.48,3.48,0,0,0-3.73-1.7,3.19,3.19,0,0,0-3,2.69A.16.16,0,0,1,42,234.25Z" transform="translate(-31.5 -25.95)"/><path class="cls-7" d="M91.06,154.84l-5.85,4.83-3.54-5.78s.07,6.42-.12,10.74c-.16,3.11-.3,5.81-.34,5.88s-22-.63-22-.63V156.31l-4.46,4.29-6.44-6.9a60,60,0,0,1,8.34-8.17A19.08,19.08,0,0,1,61.59,143a25.77,25.77,0,0,1,3.09-.92l1.14-.27a6,6,0,0,0,4.83,2.36,4.39,4.39,0,0,0,4.45-2.62s.72.27,2.68.82c.73.21,1.54.39,2.33.65a14.78,14.78,0,0,1,3.36,1.44C86.54,146.34,91.06,154.84,91.06,154.84Z" transform="translate(-31.5 -25.95)"/><path class="cls-14" d="M77.62,130.14c0,6.35-2,8.8-6.64,8.8s-7.19-1.8-7.19-8.44c0-4.66,2.53-8.44,7.19-8.44S77.62,125.48,77.62,130.14Z" transform="translate(-31.5 -25.95)"/><path class="cls-16" d="M63.89,128.92s-1.34-3.14-1-5a18.4,18.4,0,0,1,2.82.57A12.18,12.18,0,0,0,63.89,128.92Z" transform="translate(-31.5 -25.95)"/><path class="cls-11" d="M81.55,156.18a.15.15,0,0,1-.15-.15v-2.45a.15.15,0,0,1,.15-.15.15.15,0,0,1,.15.15V156A.15.15,0,0,1,81.55,156.18Z" transform="translate(-31.5 -25.95)"/><path class="cls-16" d="M77.52,128.92s1.34-3.14,1-5a18.4,18.4,0,0,0-2.82.57A7.69,7.69,0,0,1,77.52,128.92Z" transform="translate(-31.5 -25.95)"/><path class="cls-7" d="M62.83,125.14l15.74.3s.61-6.63-3.43-8.76a8.68,8.68,0,0,0-10.87,2.25A9.51,9.51,0,0,0,62.83,125.14Z" transform="translate(-31.5 -25.95)"/><path class="cls-12" d="M67.9,134.05h5.92a3.36,3.36,0,0,1-3.14,1.84A2.84,2.84,0,0,1,67.9,134.05Z" transform="translate(-31.5 -25.95)"/><path class="cls-17" d="M81.55,164.63c-.16,3.11-.3,5.81-.34,5.88s-22-.63-22-.63v-1.24c4.63-5.63,3.31-20.32,2.35-25.67a25.77,25.77,0,0,1,3.09-.92c.23,2.9.82,11.64.82,11.64s9.32.05,11.55,0c.16-4.59.38-9.41.49-11.42.74.18,1.78.46,2.57.72C79,151.12,80.46,159.74,81.55,164.63Z" transform="translate(-31.5 -25.95)"/><path class="cls-11" d="M67.77,129.4c0,.5-.25.9-.56.9s-.56-.4-.56-.9.25-.89.56-.89S67.77,128.91,67.77,129.4Z" transform="translate(-31.5 -25.95)"/><path class="cls-11" d="M74.73,129.4c0,.5-.25.9-.56.9s-.55-.4-.55-.9.24-.89.55-.89S74.73,128.91,74.73,129.4Z" transform="translate(-31.5 -25.95)"/><path class="cls-11" d="M71.67,132.25H70a.15.15,0,0,1,0-.3h1.49l-1-3.41a.16.16,0,0,1,.11-.19.15.15,0,0,1,.18.11l1,3.6a.15.15,0,0,1,0,.13A.16.16,0,0,1,71.67,132.25Z" transform="translate(-31.5 -25.95)"/><polygon class="cls-17" points="55.1 198.75 47.14 198.75 38.99 162.59 28.51 198.75 19.83 198.24 26.97 149.2 27.51 145.53 27.74 143.93 49.71 144.56 49.81 145.53 50.17 149.2 55.1 198.75"/><rect class="cls-11" x="53.73" y="219.73" width="3.41" height="11.66" rx="1" transform="translate(-204.19 243.29) rotate(-87.03)"/><rect class="cls-11" x="45.46" y="197.91" width="11.66" height="3.41" rx="1"/><polygon class="cls-11" points="26.97 149.2 50.17 149.2 49.81 145.53 27.51 145.53 26.97 149.2"/><path class="cls-9" d="M39.73,187.33a9.36,9.36,0,0,0-7.79,6.46,9,9,0,0,0-.29,4.46.56.56,0,0,0,.89.34l6.7-5.27a3,3,0,0,1,4.22.5l1.22,1.56a3,3,0,0,1-.5,4.22l-6.28,4.93a.56.56,0,0,0,.18,1,9.32,9.32,0,1,0,1.65-18.17Z" transform="translate(-31.5 -25.95)"/><path class="cls-9" d="M106,147.56a9.37,9.37,0,0,0,7.79-6.46,9.14,9.14,0,0,0,.28-4.46.55.55,0,0,0-.89-.33l-6.7,5.26a3,3,0,0,1-4.21-.5L101,139.51a3,3,0,0,1,.5-4.21l6.28-4.94a.56.56,0,0,0-.18-1A9.32,9.32,0,1,0,106,147.56Z" transform="translate(-31.5 -25.95)"/><polygon class="cls-9" points="64.21 113.13 64.78 115.65 39.13 138.99 13.48 162.34 11.03 161.52 12.51 163.22 17.02 168.18 18.61 169.93 17.99 167.3 43.65 143.95 69.3 120.61 71.86 121.47 70.27 119.72 65.76 114.76 64.21 113.13"/><path class="cls-11" d="M58.65,185.06a.15.15,0,0,1,0-.29s3.06-.47,3.78-2.44a16.31,16.31,0,0,0,.79-2.45.17.17,0,0,1,.17-.13.16.16,0,0,1,.13.17,17,17,0,0,1-.81,2.51c-.78,2.14-3.88,2.61-4,2.63Z" transform="translate(-31.5 -25.95)"/><path class="cls-14" d="M96.68,166.94c-.94,3.58-6.35,4-10.71,3a65.37,65.37,0,0,1-7.33-2.1l3.74-3.42,6.3-1.16S97.62,163.35,96.68,166.94Z" transform="translate(-31.5 -25.95)"/><path class="cls-15" d="M73.38,166.65s2.73,1.94,4.67,2,5.12-4.1,5.75-5.12-1.71-4.39-2.45-4.45-1.47.22-.57,1.31,1.39,1.81.84,2.56-1.82.4-3-.79-2.79-3.4-3.44-2.74,1.21,2.29,1.21,2.29-1.73-1.77-2.18-1.32,1.68,3.05,1.68,3.05-1.74-1.4-2.14-.66S77,167.05,77,167.05C76.05,166.88,73.77,165.79,73.38,166.65Z" transform="translate(-31.5 -25.95)"/><path class="cls-14" d="M43.35,162.05c.26,3.08,13.33,13.49,13.33,13.49s-.76,2.29,2.64,4.5,5.5.87,6.39-.75-3.63-4.69-3.63-4.69a1.43,1.43,0,0,1,1.26-.56c.71.16,2,1.66,2.84,1.11s-1-2.29-1.73-2.76-3.21.15-3.21.15S52,162.39,51.46,161.76C50.82,161.75,47.27,162,43.35,162.05Z" transform="translate(-31.5 -25.95)"/><path class="cls-11" d="M79.74,150.64H77.17a.16.16,0,0,1-.11,0,.15.15,0,0,1,0-.11l.08-2a.15.15,0,0,1,.15-.14h2.48a.15.15,0,0,1,.15.15v2a.13.13,0,0,1,0,.1A.16.16,0,0,1,79.74,150.64Zm-2.42-.3h2.27v-1.73H77.4Z" transform="translate(-31.5 -25.95)"/><path class="cls-11" d="M65.12,150.19H62.37a.15.15,0,0,1-.15-.15v-2a.15.15,0,0,1,.15-.15h2.74a.15.15,0,0,1,.15.14v2a.16.16,0,0,1,0,.11A.15.15,0,0,1,65.12,150.19Zm-2.6-.3H65v-1.73H62.52Z" transform="translate(-31.5 -25.95)"/><path class="cls-11" d="M70.49,188.78h0a.14.14,0,0,1-.14-.15l.27-11.57a.15.15,0,0,1,.15-.15.15.15,0,0,1,.15.15l-.27,11.58A.15.15,0,0,1,70.49,188.78Z" transform="translate(-31.5 -25.95)"/><path class="cls-11" d="M70.82,184.81h-.25a.16.16,0,0,1-.14-.16c0-.08.07-.13.16-.14a2.14,2.14,0,0,0,1.77-.53,1.87,1.87,0,0,0,.43-1.34v-7.48a.15.15,0,0,1,.15-.15.15.15,0,0,1,.15.15v7.47a2.08,2.08,0,0,1-.51,1.56A2.36,2.36,0,0,1,70.82,184.81Z" transform="translate(-31.5 -25.95)"/><path class="cls-11" d="M82.48,183.47h-.07a9.15,9.15,0,0,1-2.55-2.16c-1.43-1.62-1.27-6-1.16-6.2a.15.15,0,0,1,.14-.1.15.15,0,0,1,.15.15.19.19,0,0,1,0,.08c-.09.39-.17,4.42,1.12,5.87a9.11,9.11,0,0,0,2.45,2.09.14.14,0,0,1,.07.2A.14.14,0,0,1,82.48,183.47Z" transform="translate(-31.5 -25.95)"/><path class="cls-11" d="M75,158.64H68a.82.82,0,0,1-.82-.82h0A.81.81,0,0,1,68,157h7a.82.82,0,0,1,.82.81h0A.82.82,0,0,1,75,158.64Z" transform="translate(-31.5 -25.95)"/><path class="cls-11" d="M50.14,196.74a.15.15,0,0,1-.15-.14,11.57,11.57,0,0,0-2.35-6.13,10.8,10.8,0,0,0-5.73-3,.15.15,0,0,1-.12-.17.15.15,0,0,1,.17-.13,11,11,0,0,1,5.9,3.08,11.55,11.55,0,0,1,2.43,6.31.15.15,0,0,1-.15.16Z" transform="translate(-31.5 -25.95)"/><path class="cls-11" d="M104.42,147.77A9.57,9.57,0,0,1,98.16,145a11.15,11.15,0,0,1-2.73-6.72.15.15,0,0,1,.14-.15h0a.15.15,0,0,1,.15.15,10.82,10.82,0,0,0,2.64,6.51,9.25,9.25,0,0,0,6,2.69.15.15,0,0,1,0,.3Z" transform="translate(-31.5 -25.95)"/><path class="cls-11" d="M78.57,125.59h0l-15.74-.3a.15.15,0,0,1-.15-.15.16.16,0,0,1,.15-.15h0l15.74.3a.14.14,0,0,1,.14.16A.14.14,0,0,1,78.57,125.59Z" transform="translate(-31.5 -25.95)"/><path class="cls-11" d="M68.81,125.44h0a.15.15,0,0,1-.13-.17,16.89,16.89,0,0,0-1.38-8.7.14.14,0,0,1,.07-.2.16.16,0,0,1,.2.07A17.11,17.11,0,0,1,69,125.32.15.15,0,0,1,68.81,125.44Z" transform="translate(-31.5 -25.95)"/><path class="cls-11" d="M72.77,125.44a.16.16,0,0,1-.15-.12,17.79,17.79,0,0,1,1.53-9.1.15.15,0,0,1,.27.13,17.43,17.43,0,0,0-1.5,8.92.15.15,0,0,1-.12.17Z" transform="translate(-31.5 -25.95)"/><path class="cls-11" d="M68.87,122h0a.14.14,0,0,1-.12-.17,2.37,2.37,0,0,1,2.1-1.93h.06a2.16,2.16,0,0,1,2,1.82.15.15,0,0,1-.12.17.14.14,0,0,1-.17-.12,1.86,1.86,0,0,0-1.77-1.57c-1.48,0-1.81,1.67-1.82,1.69A.14.14,0,0,1,68.87,122Z" transform="translate(-31.5 -25.95)"/><path class="cls-11" d="M63.19,181.27h-.06c-1.67-.66-4.06-3.3-4.16-3.42a.15.15,0,0,1,0-.21.15.15,0,0,1,.21,0s2.45,2.71,4.05,3.35a.14.14,0,0,1,.09.19A.15.15,0,0,1,63.19,181.27Z" transform="translate(-31.5 -25.95)"/><path class="cls-11" d="M64.5,180.69h0c-.82-.25-3.86-3.51-4.21-3.88a.15.15,0,0,1,0-.21.14.14,0,0,1,.21,0c.92,1,3.45,3.61,4.08,3.8a.16.16,0,0,1,.1.19A.16.16,0,0,1,64.5,180.69Z" transform="translate(-31.5 -25.95)"/><path class="cls-11" d="M65.51,179.67h0c-.6-.14-3.46-3.21-4-3.83a.15.15,0,0,1,0-.21.17.17,0,0,1,.22,0,27.93,27.93,0,0,0,3.87,3.74.15.15,0,0,1,0,.29Z" transform="translate(-31.5 -25.95)"/><path class="cls-11" d="M79.62,164.67h-.07a14.71,14.71,0,0,1-3.16-2.8.16.16,0,0,1,0-.22.15.15,0,0,1,.21,0,14.92,14.92,0,0,0,3.07,2.73.14.14,0,0,1,.07.2A.14.14,0,0,1,79.62,164.67Z" transform="translate(-31.5 -25.95)"/><path class="cls-11" d="M78.77,166.09l-.07,0a14.62,14.62,0,0,1-2.9-2.44.15.15,0,1,1,.22-.2,15,15,0,0,0,2.83,2.38.14.14,0,0,1,.05.2A.13.13,0,0,1,78.77,166.09Z" transform="translate(-31.5 -25.95)"/><path class="cls-11" d="M93.91,164h0c-2.49-1-6.71-.32-6.75-.31a.16.16,0,0,1-.17-.13.15.15,0,0,1,.12-.17c.18,0,4.34-.67,6.9.33a.16.16,0,0,1,.09.2A.14.14,0,0,1,93.91,164Z" transform="translate(-31.5 -25.95)"/><path class="cls-11" d="M57.7,168.79a.13.13,0,0,1-.12,0l-3.88-4.28c-3.07-3.39-4.51-3.81-4.52-3.81a.15.15,0,1,1,.07-.29c.06,0,1.52.42,4.67,3.9l3.89,4.28a.15.15,0,0,1,0,.21A.14.14,0,0,1,57.7,168.79Z" transform="translate(-31.5 -25.95)"/><path class="cls-11" d="M70.57,145.35a6,6,0,0,1-5.38-3.24.16.16,0,0,1,.08-.2.14.14,0,0,1,.19.08,5.64,5.64,0,0,0,10.17-.3.14.14,0,0,1,.19-.08.15.15,0,0,1,.09.19A6,6,0,0,1,70.57,145.35Z" transform="translate(-31.5 -25.95)"/><path class="cls-11" d="M55.37,160.18a.16.16,0,0,1-.11-.05l-6.6-6.78a.16.16,0,0,1,0-.22.15.15,0,0,1,.21,0l6.61,6.79a.15.15,0,0,1,0,.21A.15.15,0,0,1,55.37,160.18Z" transform="translate(-31.5 -25.95)"/><path class="cls-11" d="M59.24,161.39a.15.15,0,0,1-.15-.15V155a.15.15,0,0,1,.15-.15.15.15,0,0,1,.15.15v6.25A.15.15,0,0,1,59.24,161.39Z" transform="translate(-31.5 -25.95)"/><path class="cls-9" d="M224.36,226v8.6l-.08,1.07H208.62v-1.89s-.14-2.36,4.73-3.21S218,226,218,226Z" transform="translate(-31.5 -25.95)"/><polygon class="cls-10" points="192.86 208.63 192.78 209.71 177.12 209.71 177.12 208.63 192.86 208.63"/><path class="cls-11" d="M219.23,228.37h-1.89a.15.15,0,0,1-.15-.15.15.15,0,0,1,.15-.15h1.89a.15.15,0,0,1,.15.15A.15.15,0,0,1,219.23,228.37Z" transform="translate(-31.5 -25.95)"/><path class="cls-11" d="M218.29,229.94h-2.66a.15.15,0,0,1,0-.3h2.66a.15.15,0,0,1,0,.3Z" transform="translate(-31.5 -25.95)"/><path class="cls-11" d="M214.41,231.51a.15.15,0,0,1,0-.3s4.21-.12,5.24-3.86a.15.15,0,0,1,.29.08c-1.09,4-5.48,4.08-5.53,4.08Z" transform="translate(-31.5 -25.95)"/><path class="cls-11" d="M208.7,233.92h0a.14.14,0,0,1-.13-.16,3.54,3.54,0,0,1,3.27-3,3.83,3.83,0,0,1,4,1.87.16.16,0,0,1-.07.2.14.14,0,0,1-.2-.07,3.48,3.48,0,0,0-3.73-1.7,3.19,3.19,0,0,0-3,2.69A.16.16,0,0,1,208.7,233.92Z" transform="translate(-31.5 -25.95)"/><path class="cls-18" d="M239.23,153.25a10.11,10.11,0,0,0-1.38-1.06l-.16-.11-13.64-8.31.31,8.95,9.33,5.62a3.7,3.7,0,0,0,2.52,1.18,3.85,3.85,0,0,0,3.73-5.15A2.74,2.74,0,0,0,239.23,153.25Z" transform="translate(-31.5 -25.95)"/><path class="cls-18" d="M195.37,166.29a4,4,0,0,0,.3-.49l6-9.9L198,146.49l-8.64,15.21h0a3.86,3.86,0,0,0-.76,2.29,3.74,3.74,0,0,0,6.73,2.36h0Z" transform="translate(-31.5 -25.95)"/><path class="cls-9" d="M233.56,149l-3.51,7.34-5.67-2-.73,9.33-.66,8.45h-18.9l-1.18-10-.72-6-2.88,4.35-7.3-6.09s4.63-9.23,9-10.63a17,17,0,0,1,2.16-.51c.92-.16,2-.3,3.08-.42a91.35,91.35,0,0,1,12.67-.38,27.13,27.13,0,0,1,3.08.27l.23,0C226.44,143.44,233.56,149,233.56,149Z" transform="translate(-31.5 -25.95)"/><path class="cls-19" d="M208.49,137.18l-.77,5.4s1.22,2,5.07,2,4.54-2.29,4.54-2.29l-1.52-5.3Z" transform="translate(-31.5 -25.95)"/><path class="cls-19" d="M230.18,174.81s2.06-1.86,1.52-3-4,.61-4,.61-.9,2,.41,2.4A2.83,2.83,0,0,0,230.18,174.81Z" transform="translate(-31.5 -25.95)"/><path class="cls-16" d="M221.44,127a10.94,10.94,0,0,1-.57,3.14.6.6,0,0,1-.06.11c-1.18-.09-2.37,1.31-2.37,1.31l-.2-4.64Z" transform="translate(-31.5 -25.95)"/><path class="cls-18" d="M219.07,134.89a9.6,9.6,0,0,1-3.74,3.64c-2.73,1.47-6.14,1.46-8.13-1.35-3.66-5.16-.78-11.46-.14-12l11.18,1.77.2,4.64s1.19-1.4,2.37-1.31a1.64,1.64,0,0,1,1.28.93C223.43,133.47,220.81,135.54,219.07,134.89Z" transform="translate(-31.5 -25.95)"/><path class="cls-9" d="M221.44,127s-3.15,1.1-10.13.16-8.76-1.94-8.76-1.94l3.41-2s2.87-9,10.34-6.78C224,118.73,221.44,127,221.44,127Z" transform="translate(-31.5 -25.95)"/><path class="cls-10" d="M221.44,127s-3.15,1.1-10.13.16-8.76-1.94-8.76-1.94l3.41-2s1.06,1.16,5.55,2.26A72.7,72.7,0,0,0,221.44,127Z" transform="translate(-31.5 -25.95)"/><path class="cls-12" d="M209,134l3.9.89a2,2,0,0,1-2.71,1.31A1.63,1.63,0,0,1,209,134Z" transform="translate(-31.5 -25.95)"/><path class="cls-11" d="M211.9,133.18h0l-2.08-.58a.13.13,0,0,1-.1-.09.15.15,0,0,1,0-.13c.6-1.11,1.61-3,1.73-3.09a.16.16,0,0,1,.22,0,.15.15,0,0,1,0,.21c-.11.14-1,1.76-1.58,2.86l1.9.53a.14.14,0,0,1,.1.18A.15.15,0,0,1,211.9,133.18Z" transform="translate(-31.5 -25.95)"/><path class="cls-11" d="M215.51,130.72c-.15.58-.5,1-.78.92s-.39-.6-.24-1.18.51-1,.79-.92S215.66,130.14,215.51,130.72Z" transform="translate(-31.5 -25.95)"/><path class="cls-11" d="M209.18,129.07c-.16.58-.51,1-.79.92s-.38-.6-.23-1.18.5-1,.78-.92S209.33,128.49,209.18,129.07Z" transform="translate(-31.5 -25.95)"/><path class="cls-11" d="M208.25,124.6h0a.15.15,0,0,1-.14-.16c0-.19.45-4.6,2.48-6.36a10,10,0,0,1,4.19-2.13.16.16,0,0,1,.18.12.16.16,0,0,1-.12.18,9.68,9.68,0,0,0-4.05,2.06c-1.94,1.68-2.37,6.11-2.38,6.16A.15.15,0,0,1,208.25,124.6Z" transform="translate(-31.5 -25.95)"/><path class="cls-11" d="M211.51,125.6a.15.15,0,0,1-.15-.15c0-.15-.05-3.84,1.89-6.2a9.57,9.57,0,0,1,3.57-2.79.14.14,0,0,1,.19.08.15.15,0,0,1-.08.19,9.55,9.55,0,0,0-3.45,2.71c-1.87,2.28-1.82,6-1.82,6a.15.15,0,0,1-.15.15Z" transform="translate(-31.5 -25.95)"/><path class="cls-11" d="M215.68,126.43a.15.15,0,0,1-.15-.13c0-.15-.52-3.79,1.42-5.85s3-2,3-2a.15.15,0,0,1,.15.16.15.15,0,0,1-.15.14h0s-.94,0-2.77,1.94-1.34,5.56-1.34,5.6a.15.15,0,0,1-.13.17Z" transform="translate(-31.5 -25.95)"/><path class="cls-11" d="M220.09,135.15H220c-1.6-.07-1.86-.81-1.87-.84a.14.14,0,0,1,.09-.19.14.14,0,0,1,.19.09s.24.58,1.6.64,2.1-1.51,2.1-1.53a.16.16,0,0,1,.2-.07.14.14,0,0,1,.08.19A2.81,2.81,0,0,1,220.09,135.15Z" transform="translate(-31.5 -25.95)"/><path class="cls-18" d="M233.25,155s-5.42,8.53-6.85,12.88a4.68,4.68,0,0,0,3,1.43s3-2.8,5.78-6.09,4.27-5.25,4.27-5.25Z" transform="translate(-31.5 -25.95)"/><path class="cls-18" d="M196.13,164a3.63,3.63,0,0,0-3.36-3.84,3.19,3.19,0,0,0-2.49,1.28.88.88,0,0,1-.46.33,70.78,70.78,0,0,0-11.21,3.71,1,1,0,0,0-.52,1.05,5.6,5.6,0,0,0,.6,1.95.83.83,0,0,0,.7.44,66.73,66.73,0,0,0,7.07-.18c3.27-.28,6.12-.81,6.89-1a.82.82,0,0,0,.37-.19C194.29,167.1,196.13,165.4,196.13,164Z" transform="translate(-31.5 -25.95)"/><path class="cls-18" d="M228,172.87a1.82,1.82,0,0,0,2.19,1.94c-.8,1-4.14.25-4.14.25Z" transform="translate(-31.5 -25.95)"/><path class="cls-7" d="M224.81,202l-.34,25.1h-7.53l-3.88-39.33-6.86,14.14-1.67,25.19H197s-1.32-26.23-1.23-26.62v0l.2-.66,0-.07,8.12-27.6,9.19-.28,9.13.12c1.46-.12,1.84.16,1.82.61C224.23,172.54,224.82,201.88,224.81,202Z" transform="translate(-31.5 -25.95)"/><rect class="cls-13" x="184.28" y="197.18" width="10.02" height="3.96" rx="1"/><polygon class="cls-19" points="148.84 141.03 147.97 142.9 145.73 144.91 141.82 145.41 140.34 139.07 141.19 137.64 148.84 141.03"/><path class="cls-13" d="M192.75,233.89l-6.59,1.66a3.77,3.77,0,0,1-4.58-3.22l-5.78-38.74a3.92,3.92,0,0,1,2.83-4.42l.68-.18a3.87,3.87,0,0,1,4.67,2.38l11.45,37.48A4,4,0,0,1,192.75,233.89Z" transform="translate(-31.5 -25.95)"/><path class="cls-20" d="M180.06,185.62l-3,.77c-.26-.17-5.79-26.44-8.71-40.35-.7-3.32-1.26-5.94-1.54-7.33a1.25,1.25,0,0,1,.8-1.44,1.13,1.13,0,0,1,.95.14,1.31,1.31,0,0,1,.54.76l1.74,7.53Z" transform="translate(-31.5 -25.95)"/><path class="cls-9" d="M170.85,145.7a2.32,2.32,0,0,1-2.49.34c-.7-3.32-1.26-5.94-1.54-7.33a1.25,1.25,0,0,1,.8-1.44,1.13,1.13,0,0,1,.95.14,1.31,1.31,0,0,1,.54.76Z" transform="translate(-31.5 -25.95)"/><path class="cls-21" d="M181.34,190.07l-3.72.83a1,1,0,0,1-1.14-.77l-.79-3.91a1,1,0,0,1,.74-1.18l3.72-.83a1,1,0,0,1,1.14.77l.79,3.9A1,1,0,0,1,181.34,190.07Z" transform="translate(-31.5 -25.95)"/><path class="cls-18" d="M170.2,168a1.19,1.19,0,0,1-1.2-.45c-.43-.64.36-1.36.93-1.67s4.49-1,4.7-.19S170.2,168,170.2,168Z" transform="translate(-31.5 -25.95)"/><path class="cls-18" d="M170.32,168.79s.41.8,2,0,3.49-1.45,3.32-2-1.52-.39-2.8.14S169.54,167.66,170.32,168.79Z" transform="translate(-31.5 -25.95)"/><path class="cls-18" d="M171.48,169.21s-.33.21,0,.9.82.54,1.68.17,3.43-1.86,3-2.41-1.08-.33-1.95,0A24.78,24.78,0,0,0,171.48,169.21Z" transform="translate(-31.5 -25.95)"/><path class="cls-18" d="M172.44,171a.39.39,0,0,0,.14.17.91.91,0,0,0,.73.18,1.63,1.63,0,0,0,.3-.07,9.63,9.63,0,0,0,2.48-1.66c.3-.29.25-.89-.33-.73a15.12,15.12,0,0,0-3,1.55,1.16,1.16,0,0,0-.34.39A.17.17,0,0,0,172.44,171Z" transform="translate(-31.5 -25.95)"/><path class="cls-11" d="M170.2,168.18a.17.17,0,0,1-.14-.09.16.16,0,0,1,.08-.2l3.27-1.36a.15.15,0,1,1,.12.28l-3.27,1.36Z" transform="translate(-31.5 -25.95)"/><path class="cls-11" d="M171.48,169.35a.15.15,0,0,1-.14-.09.16.16,0,0,1,.07-.2l2.69-1.36a.15.15,0,0,1,.2.06.15.15,0,0,1-.07.21l-2.69,1.36Z" transform="translate(-31.5 -25.95)"/><path class="cls-11" d="M172.78,170.6a.15.15,0,0,1-.08-.27l1.91-1.21a.15.15,0,0,1,.16.26l-1.91,1.2A.11.11,0,0,1,172.78,170.6Z" transform="translate(-31.5 -25.95)"/><path class="cls-18" d="M179,165.34l-1-.49c-.63-.33-1.34-.68-2-1a8.63,8.63,0,0,0-2.2-.86,1.86,1.86,0,0,0-1.75.33c-.55.53-1.92,1.93-2.2,2.3-.55.75.9.61,1.47.27a13.86,13.86,0,0,0,1.56-1.28l4,2.63a2.12,2.12,0,0,0,2.5,1.68,1.92,1.92,0,0,0,1.5-2A2,2,0,0,0,179,165.34Z" transform="translate(-31.5 -25.95)"/><path class="cls-11" d="M170.37,166.46a1,1,0,0,1-.25,0,.81.81,0,0,1-.51-.51.16.16,0,0,1,.09-.19.15.15,0,0,1,.19.1h0a.56.56,0,0,0,.33.31c.25.08.6,0,1-.38a15.25,15.25,0,0,0,1.53-1.26.16.16,0,0,1,.21,0,.17.17,0,0,1,0,.21,16.09,16.09,0,0,1-1.59,1.31A1.83,1.83,0,0,1,170.37,166.46Z" transform="translate(-31.5 -25.95)"/><path class="cls-11" d="M229.6,174.49a.15.15,0,0,1-.11,0,.15.15,0,0,1,0-.21l1.63-1.67a.17.17,0,0,1,.22,0,.14.14,0,0,1,0,.21l-1.64,1.67A.14.14,0,0,1,229.6,174.49Z" transform="translate(-31.5 -25.95)"/><path class="cls-11" d="M228.87,174.08a.16.16,0,0,1-.11-.05.15.15,0,0,1,0-.21l2.3-2.13a.16.16,0,0,1,.21.23L229,174A.12.12,0,0,1,228.87,174.08Z" transform="translate(-31.5 -25.95)"/><path class="cls-11" d="M228.59,173.43a.13.13,0,0,1-.1,0,.15.15,0,0,1,0-.21l1.4-1.48a.15.15,0,0,1,.22.21l-1.4,1.47A.16.16,0,0,1,228.59,173.43Z" transform="translate(-31.5 -25.95)"/><path class="cls-11" d="M212.54,145.3h0c-3.94,0-5.4-2.44-5.46-2.55a.15.15,0,0,1,.05-.2.15.15,0,0,1,.21,0,6,6,0,0,0,5.2,2.4h0c4,0,5.33-2.65,5.34-2.67a.14.14,0,0,1,.2-.07.15.15,0,0,1,.07.2S216.72,145.3,212.54,145.3Z" transform="translate(-31.5 -25.95)"/><path class="cls-11" d="M229.14,156.14l-.06,0a.14.14,0,0,1-.07-.2l3.54-7.66a.14.14,0,0,1,.2-.07.13.13,0,0,1,.07.19l-3.54,7.67A.17.17,0,0,1,229.14,156.14Z" transform="translate(-31.5 -25.95)"/><path class="cls-11" d="M199.91,159.67a.19.19,0,0,1-.1,0l-7.4-6.14a.15.15,0,0,1,.19-.23l7.4,6.14a.14.14,0,0,1,0,.21A.16.16,0,0,1,199.91,159.67Z" transform="translate(-31.5 -25.95)"/><path class="cls-7" d="M223.65,163.64l-.32,8.45H204.09l-1.18-10a61,61,0,0,0,1.14-9.83,46.93,46.93,0,0,0-.86-9.08c.92-.16,2-.3,3.08-.42l1.55,10.61H218l.93-11a27.13,27.13,0,0,1,3.08.27,46.78,46.78,0,0,0-.47,9.06A67.19,67.19,0,0,0,223.65,163.64Z" transform="translate(-31.5 -25.95)"/><polygon class="cls-13" points="172.24 143.17 191.94 143.3 191.83 146.15 172.59 146.15 172.24 143.17"/><path class="cls-18" d="M226.4,167.85s-4.27,2.83-3.65,4.73A3.65,3.65,0,0,0,227,175c1.48-.41,2.42-5.69,2.42-5.69Z" transform="translate(-31.5 -25.95)"/><path class="cls-13" d="M216.79,160.31h-7a.79.79,0,0,1-.79-.79h0a.79.79,0,0,1,.79-.79h7a.79.79,0,0,1,.79.79h0A.79.79,0,0,1,216.79,160.31Z" transform="translate(-31.5 -25.95)"/><path class="cls-11" d="M204,150.74a.18.18,0,0,1-.1,0,.14.14,0,0,1-.05-.1l-.14-2.41a.12.12,0,0,1,0-.1.16.16,0,0,1,.11-.05l3.31-.19a.15.15,0,0,1,.11,0,.12.12,0,0,1,.05.1l.12,2.36a.16.16,0,0,1-.14.16l-3.29.23Zm0-2.41.13,2.1,3-.21-.1-2.06Z" transform="translate(-31.5 -25.95)"/><path class="cls-11" d="M221.62,150.33h-3.3a.16.16,0,0,1-.11,0,.15.15,0,0,1,0-.1l0-2.41a.12.12,0,0,1,0-.1.13.13,0,0,1,.11,0l3.32.06a.16.16,0,0,1,.1.05.15.15,0,0,1,0,.11l0,2.36A.15.15,0,0,1,221.62,150.33Zm-3.15-.31h3l.05-2.06-3-.05Z" transform="translate(-31.5 -25.95)"/><path class="cls-11" d="M213.79,195.28a.15.15,0,0,1-.15-.14l-1.59-21.53a.15.15,0,0,1,.14-.16h0a.15.15,0,0,1,.15.14l1.58,21.53a.15.15,0,0,1-.13.16Z" transform="translate(-31.5 -25.95)"/><path class="cls-11" d="M223.15,179.45a3.17,3.17,0,0,1-2.49-.94c-1.1-1.35-1-6.21-1-6.42a.15.15,0,0,1,.15-.15h0a.16.16,0,0,1,.15.16c0,.05-.14,5,.9,6.22s3.4.72,3.43.71a.15.15,0,0,1,.18.11.16.16,0,0,1-.12.18A5.9,5.9,0,0,1,223.15,179.45Z" transform="translate(-31.5 -25.95)"/><path class="cls-9" d="M204,226v8.6l-.08,1.07H188.22v-1.89s-.14-2.36,4.73-3.21,4.66-4.58,4.66-4.58Z" transform="translate(-31.5 -25.95)"/><polygon class="cls-10" points="172.47 208.63 172.38 209.71 156.72 209.71 156.72 208.63 172.47 208.63"/><path class="cls-11" d="M198.83,228.37h-1.89a.15.15,0,0,1-.15-.15.15.15,0,0,1,.15-.15h1.89a.15.15,0,0,1,.15.15A.14.14,0,0,1,198.83,228.37Z" transform="translate(-31.5 -25.95)"/><path class="cls-11" d="M197.89,229.94h-2.65a.15.15,0,0,1,0-.3h2.65a.15.15,0,0,1,0,.3Z" transform="translate(-31.5 -25.95)"/><path class="cls-11" d="M194,231.51a.16.16,0,0,1-.15-.15.15.15,0,0,1,.15-.15s4.21-.12,5.25-3.86a.15.15,0,0,1,.28.08c-1.09,4-5.48,4.08-5.52,4.08Z" transform="translate(-31.5 -25.95)"/><path class="cls-11" d="M188.3,233.92h0a.14.14,0,0,1-.14-.16,3.55,3.55,0,0,1,3.27-3,3.83,3.83,0,0,1,4,1.87.14.14,0,0,1-.07.2.14.14,0,0,1-.2-.07,3.46,3.46,0,0,0-3.72-1.7,3.2,3.2,0,0,0-3,2.69A.15.15,0,0,1,188.3,233.92Z" transform="translate(-31.5 -25.95)"/><rect class="cls-13" x="164.1" y="197.18" width="10.02" height="3.96" rx="1"/></g></g></svg>